<?xml version="1.0" encoding="UTF-8"?><svg xmlns="http://www.w3.org/2000/svg" xmlns:xlink="http://www.w3.org/1999/xlink" viewBox="0 0 251.45 330.13"><defs><style>.cls-1{fill:url(#radial-gradient-3);}.cls-1,.cls-2,.cls-3{mix-blend-mode:screen;}.cls-4{fill:url(#_Áåçûìÿííûé_ãðàäèåíò_124-3);}.cls-5{fill:#fa0;mix-blend-mode:color-burn;}.cls-5,.cls-6,.cls-7,.cls-8,.cls-9,.cls-10,.cls-11,.cls-12,.cls-13,.cls-14,.cls-15,.cls-16,.cls-17,.cls-18,.cls-19,.cls-20,.cls-21,.cls-22,.cls-23,.cls-24,.cls-25,.cls-26,.cls-27,.cls-28{fill-rule:evenodd;}.cls-5,.cls-29{opacity:.3;}.cls-30{fill:url(#linear-gradient-2);}.cls-30,.cls-2,.cls-3,.cls-27{opacity:.5;}.cls-30,.cls-31,.cls-32{mix-blend-mode:lighten;}.cls-33,.cls-10{fill:#fff;}.cls-6{fill:url(#_Áåçûìÿííûé_ãðàäèåíò_163);}.cls-6,.cls-34,.cls-7,.cls-35,.cls-9,.cls-36,.cls-13,.cls-18,.cls-20,.cls-22,.cls-25,.cls-27,.cls-37{mix-blend-mode:multiply;}.cls-34{fill:url(#_Áåçûìÿííûé_ãðàäèåíò_98-2);}.cls-34,.cls-35,.cls-37{opacity:.91;}.cls-7{fill:url(#_Áåçûìÿííûé_ãðàäèåíò_6-2);}.cls-38{fill:#6d3a51;}.cls-8{fill:#684d73;}.cls-39,.cls-19{fill:#ff6b22;}.cls-35{fill:url(#_Áåçûìÿííûé_ãðàäèåíò_221);}.cls-9{fill:url(#_Áåçûìÿííûé_ãðàäèåíò_6);}.cls-2{fill:url(#radial-gradient-4);}.cls-40{fill:#f58e6f;}.cls-11{fill:#dd6668;}.cls-41{isolation:isolate;}.cls-12,.cls-27,.cls-42{fill:#53345f;}.cls-43{fill:url(#_Áåçûìÿííûé_ãðàäèåíò_13-2);}.cls-44{fill:url(#_Áåçûìÿííûé_ãðàäèåíò_13);}.cls-3{fill:url(#radial-gradient-5);}.cls-36{fill:url(#_Áåçûìÿííûé_ãðàäèåíò_98);}.cls-36,.cls-13{opacity:.6;}.cls-45{fill:#aeffff;}.cls-46,.cls-21{fill:#cc5268;}.cls-47{fill:url(#_Áåçûìÿííûé_ãðàäèåíò_11);}.cls-13{fill:url(#_Áåçûìÿííûé_ãðàäèåíò_69);}.cls-48{fill:url(#_Áåçûìÿííûé_ãðàäèåíò_10);}.cls-29{fill:url(#radial-gradient-2);}.cls-49{fill:url(#_Áåçûìÿííûé_ãðàäèåíò_213);}.cls-50{clip-path:url(#clippath-1);}.cls-14{fill:url(#_Áåçûìÿííûé_ãðàäèåíò_519);}.cls-15{fill:url(#_Áåçûìÿííûé_ãðàäèåíò_25);}.cls-16,.cls-51{fill:#cab3da;}.cls-17{fill:url(#_Áåçûìÿííûé_ãðàäèåíò_436-2);}.cls-18{fill:url(#_Áåçûìÿííûé_ãðàäèåíò_6-3);}.cls-52{fill:#8b2e45;}.cls-20{fill:url(#_Áåçûìÿííûé_ãðàäèåíò_163-2);}.cls-53{fill:url(#_Áåçûìÿííûé_ãðàäèåíò_93);}.cls-32{fill:url(#radial-gradient);}.cls-54{fill:url(#_Áåçûìÿííûé_ãðàäèåíò_124-2);}.cls-55{fill:url(#_Áåçûìÿííûé_ãðàäèåíò_213-2);}.cls-56{clip-path:url(#clippath);}.cls-22{fill:url(#_Áåçûìÿííûé_ãðàäèåíò_6-4);}.cls-57{fill:#402f40;}.cls-58{mix-blend-mode:color;}.cls-59{fill:none;}.cls-23{fill:url(#_Áåçûìÿííûé_ãðàäèåíò_20);}.cls-24{fill:url(#_Áåçûìÿííûé_ãðàäèåíò_436);}.cls-60{fill:#ffbba6;}.cls-61{fill:url(#_Áåçûìÿííûé_ãðàäèåíò_203-2);}.cls-25{fill:url(#_Áåçûìÿííûé_ãðàäèåíò_6-5);}.cls-26{fill:url(#_Áåçûìÿííûé_ãðàäèåíò_25-2);}.cls-62{fill:url(#linear-gradient);}.cls-28{fill:#a13751;}.cls-63{fill:url(#_Áåçûìÿííûé_ãðàäèåíò_12);}.cls-64{fill:url(#_Áåçûìÿííûé_ãðàäèåíò_203);}.cls-37{fill:url(#_Áåçûìÿííûé_ãðàäèåíò_221-2);}.cls-65{fill:url(#_Áåçûìÿííûé_ãðàäèåíò_124);}</style><radialGradient id="_Áåçûìÿííûé_ãðàäèåíò_25" cx="6228.81" cy="-1047.83" fx="6228.81" fy="-1047.83" r="33.41" gradientTransform="translate(6325.7 870.96) rotate(177.13) scale(1 -1)" gradientUnits="userSpaceOnUse"><stop offset="0" stop-color="#f4dbee"/><stop offset="1" stop-color="#d1bde5"/></radialGradient><linearGradient id="_Áåçûìÿííûé_ãðàäèåíò_163" x1="6190.4" y1="-1038.72" x2="6230.03" y2="-1038.72" gradientTransform="translate(6325.7 870.96) rotate(177.13) scale(1 -1)" gradientUnits="userSpaceOnUse"><stop offset="0" stop-color="#9579a7"/><stop offset="1" stop-color="#fff"/></linearGradient><radialGradient id="_Áåçûìÿííûé_ãðàäèåíò_436" cx="6243.73" cy="-931.68" fx="6243.73" fy="-931.68" r="35.62" gradientTransform="translate(6325.7 870.96) rotate(177.13) scale(1 -1)" gradientUnits="userSpaceOnUse"><stop offset="0" stop-color="#f4f1ff"/><stop offset="1" stop-color="#d1bde5"/></radialGradient><radialGradient id="_Áåçûìÿííûé_ãðàäèåíò_25-2" cx="6129.95" cy="-1015.73" fx="6129.95" fy="-1015.73" r="36.47" xlink:href="#_Áåçûìÿííûé_ãðàäèåíò_25"/><radialGradient id="_Áåçûìÿííûé_ãðàäèåíò_436-2" cx="6154.87" cy="-925.24" fx="6154.87" fy="-925.24" r="42.95" xlink:href="#_Áåçûìÿííûé_ãðàäèåíò_436"/><linearGradient id="_Áåçûìÿííûé_ãðàäèåíò_6" x1="6100.75" y1="-963.29" x2="6226.79" y2="-963.29" gradientTransform="translate(6325.7 870.96) rotate(177.13) scale(1 -1)" gradientUnits="userSpaceOnUse"><stop offset="0" stop-color="#fff"/><stop offset="1" stop-color="#9579a7"/></linearGradient><linearGradient id="_Áåçûìÿííûé_ãðàäèåíò_6-2" x1="6212.91" y1="-887" x2="6242.56" y2="-887" xlink:href="#_Áåçûìÿííûé_ãðàäèåíò_6"/><linearGradient id="_Áåçûìÿííûé_ãðàäèåíò_6-3" x1="6126.89" y1="-878.95" x2="6154.81" y2="-878.95" xlink:href="#_Áåçûìÿííûé_ãðàäèåíò_6"/><linearGradient id="_Áåçûìÿííûé_ãðàäèåíò_6-4" x1="6080.24" y1="-1001.61" x2="6099.49" y2="-1001.61" xlink:href="#_Áåçûìÿííûé_ãðàäèåíò_6"/><linearGradient id="_Áåçûìÿííûé_ãðàäèåíò_163-2" x1="6259.12" y1="-1066.43" x2="6270.82" y2="-1066.43" xlink:href="#_Áåçûìÿííûé_ãðàäèåíò_163"/><linearGradient id="_Áåçûìÿííûé_ãðàäèåíò_93" x1="6179.17" y1="-1167.63" x2="6179.17" y2="-1102.47" gradientTransform="translate(6325.7 870.96) rotate(177.13) scale(1 -1)" gradientUnits="userSpaceOnUse"><stop offset="0" stop-color="#007c7e"/><stop offset="1" stop-color="#0f183b"/></linearGradient><radialGradient id="radial-gradient" cx="6165.99" cy="-1115.53" fx="6165.99" fy="-1115.53" r="93.82" gradientTransform="translate(6325.7 870.96) rotate(177.13) scale(1 -1)" gradientUnits="userSpaceOnUse"><stop offset="0" stop-color="#00c6ff"/><stop offset=".15" stop-color="#00addf"/><stop offset=".47" stop-color="#006f90"/><stop offset=".93" stop-color="#000e12"/><stop offset="1" stop-color="#000"/></radialGradient><linearGradient id="linear-gradient" x1="6226.31" y1="-1141.09" x2="6134.15" y2="-1107.55" gradientTransform="translate(6325.7 870.96) rotate(177.13) scale(1 -1)" gradientUnits="userSpaceOnUse"><stop offset="0" stop-color="#00c6ff"/><stop offset=".15" stop-color="#00addf"/><stop offset=".47" stop-color="#006f90"/><stop offset=".93" stop-color="#000e12"/><stop offset="1" stop-color="#000"/></linearGradient><linearGradient id="_Áåçûìÿííûé_ãðàäèåíò_11" x1="-5189.24" y1="-1625.67" x2="-5189.24" y2="-1712.29" gradientTransform="translate(5481.18 961.84) rotate(-8.37)" gradientUnits="userSpaceOnUse"><stop offset=".02" stop-color="#ffae78"/><stop offset="1" stop-color="#ff957c"/></linearGradient><linearGradient id="_Áåçûìÿííûé_ãðàäèåíò_98" x1="-5187.8" y1="-1625.67" x2="-5187.8" y2="-1712.29" gradientTransform="translate(5481.18 961.84) rotate(-8.37)" gradientUnits="userSpaceOnUse"><stop offset=".02" stop-color="#f0c2d6"/><stop offset=".99" stop-color="#bd89c4"/></linearGradient><linearGradient id="_Áåçûìÿííûé_ãðàäèåíò_124" x1="-5180.66" y1="-1642.96" x2="-5180.66" y2="-1732.76" gradientTransform="translate(5481.18 961.84) rotate(-8.37)" gradientUnits="userSpaceOnUse"><stop offset="0" stop-color="#813645"/><stop offset="1" stop-color="#bd5042"/></linearGradient><linearGradient id="_Áåçûìÿííûé_ãðàäèåíò_124-2" x1="-5177.21" y1="-1672.76" x2="-5177.21" y2="-1694.61" xlink:href="#_Áåçûìÿííûé_ãðàäèåíò_124"/><linearGradient id="_Áåçûìÿííûé_ãðàäèåíò_124-3" x1="-5212.57" y1="-1683.1" x2="-5212.57" y2="-1701.23" xlink:href="#_Áåçûìÿííûé_ãðàäèåíò_124"/><linearGradient id="_Áåçûìÿííûé_ãðàäèåíò_13" x1="-5187.27" y1="-1652.11" x2="-5187.27" y2="-1675.35" gradientTransform="translate(5481.18 961.84) rotate(-8.37)" gradientUnits="userSpaceOnUse"><stop offset="0" stop-color="#fff"/><stop offset="1" stop-color="#d0c7f8"/></linearGradient><linearGradient id="_Áåçûìÿííûé_ãðàäèåíò_13-2" x1="-5218.61" y1="-1663.42" x2="-5218.61" y2="-1685.21" xlink:href="#_Áåçûìÿííûé_ãðàäèåíò_13"/><clipPath id="clippath"><path class="cls-59" d="m96.47,78.31c-1.97-5.6.37-16.53,9.03-18.59,8.66-2.06,15.56,9.54,13.53,16.83-1.95,7.02-20.01,9-22.57,1.76Z"/></clipPath><linearGradient id="_Áåçûìÿííûé_ãðàäèåíò_203" x1="-4698.96" y1="1.82" x2="-4698.96" y2="-14.72" gradientTransform="translate(5430.21 950.97) rotate(9.27) scale(1.15 1.38)" gradientUnits="userSpaceOnUse"><stop offset="0" stop-color="#6f8b8b"/><stop offset=".98" stop-color="#5c435b"/></linearGradient><clipPath id="clippath-1"><path class="cls-59" d="m68.93,71.51c.06,2.64.86,4.89,2.95,5.04,2.09.14,7.19-1,9.19-6.11,1.32-3.38-.77-15.55-5.36-16.25-3.91-.6-6.9,12.15-6.78,17.32Z"/></clipPath><linearGradient id="_Áåçûìÿííûé_ãðàäèåíò_203-2" x1="-9026.19" y1="209.88" x2="-9026.19" y2="192.6" gradientTransform="translate(5621.8 933.9) rotate(11.21) scale(.62 1.14)" xlink:href="#_Áåçûìÿííûé_ãðàäèåíò_203"/><linearGradient id="_Áåçûìÿííûé_ãðàäèåíò_213" x1="-5159.28" y1="-1696.78" x2="-5159.28" y2="-1721.89" gradientTransform="translate(5481.18 961.84) rotate(-8.37)" gradientUnits="userSpaceOnUse"><stop offset="0" stop-color="#aa454f"/><stop offset="1" stop-color="#d98638"/></linearGradient><linearGradient id="_Áåçûìÿííûé_ãðàäèåíò_12" x1="-5192.91" y1="-1714.99" x2="-5192.91" y2="-1732.76" gradientTransform="translate(5481.18 961.84) rotate(-8.37)" gradientUnits="userSpaceOnUse"><stop offset="0" stop-color="#b14d4e"/><stop offset="1" stop-color="#d98638"/></linearGradient><linearGradient id="_Áåçûìÿííûé_ãðàäèåíò_98-2" x1="-5213.29" y1="-1707.31" x2="-5203.9" y2="-1707.31" xlink:href="#_Áåçûìÿííûé_ãðàäèåíò_98"/><linearGradient id="_Áåçûìÿííûé_ãðàäèåíò_221" x1="-5203.71" y1="-1703.48" x2="-5203.71" y2="-1726.88" gradientTransform="translate(5481.18 961.84) rotate(-8.37)" gradientUnits="userSpaceOnUse"><stop offset="0" stop-color="#bd89c4"/><stop offset=".98" stop-color="#f0c2d6"/></linearGradient><linearGradient id="_Áåçûìÿííûé_ãðàäèåíò_221-2" x1="-5153.98" y1="-1642.96" x2="-5153.98" y2="-1692.17" xlink:href="#_Áåçûìÿííûé_ãðàäèåíò_221"/><linearGradient id="_Áåçûìÿííûé_ãðàäèåíò_10" x1="-5666.77" y1="-174.38" x2="-5666.77" y2="-199.26" gradientTransform="translate(5752.19 902.9) rotate(6.3)" gradientUnits="userSpaceOnUse"><stop offset=".02" stop-color="#ff8359"/><stop offset="1" stop-color="#ff8b7c"/></linearGradient><linearGradient id="_Áåçûìÿííûé_ãðàäèåíò_69" x1="-5675.45" y1="-185.82" x2="-5659.14" y2="-185.82" gradientTransform="translate(5752.19 902.9) rotate(6.3)" gradientUnits="userSpaceOnUse"><stop offset="0" stop-color="#b060f4"/><stop offset="1" stop-color="#ffeadb"/></linearGradient><linearGradient id="_Áåçûìÿííûé_ãðàäèåíò_213-2" x1="-5180.25" y1="-1703.04" x2="-5180.25" y2="-1727.14" xlink:href="#_Áåçûìÿííûé_ãðàäèåíò_213"/><linearGradient id="_Áåçûìÿííûé_ãðàäèåíò_519" x1="6166.44" y1="-1053.03" x2="6166.44" y2="-1180.47" gradientTransform="translate(6325.7 870.96) rotate(177.13) scale(1 -1)" gradientUnits="userSpaceOnUse"><stop offset="0" stop-color="#d1bde5"/><stop offset="1" stop-color="#fff"/></linearGradient><radialGradient id="radial-gradient-2" cx="6194.1" cy="-1134.36" fx="6194.1" fy="-1134.36" r="59.66" gradientTransform="translate(6325.7 870.96) rotate(177.13) scale(1 -1)" gradientUnits="userSpaceOnUse"><stop offset="0" stop-color="#0f183b"/><stop offset="1" stop-color="#00e7ff"/></radialGradient><radialGradient id="radial-gradient-3" cx="6193.09" cy="-1142.87" fx="6193.09" fy="-1142.87" r="67.97" gradientTransform="translate(6325.7 870.96) rotate(177.13) scale(1 -1)" gradientUnits="userSpaceOnUse"><stop offset="0" stop-color="#000"/><stop offset=".27" stop-color="#000002"/><stop offset=".41" stop-color="#000209"/><stop offset=".52" stop-color="#000417"/><stop offset=".61" stop-color="#00082a"/><stop offset=".69" stop-color="#000e42"/><stop offset=".77" stop-color="#001460"/><stop offset=".84" stop-color="#001c84"/><stop offset=".9" stop-color="#0024ae"/><stop offset=".96" stop-color="#002edc"/><stop offset="1" stop-color="#0036ff"/></radialGradient><linearGradient id="_Áåçûìÿííûé_ãðàäèåíò_6-5" x1="6097.95" y1="-1090.68" x2="6227.88" y2="-1090.68" xlink:href="#_Áåçûìÿííûé_ãðàäèåíò_6"/><linearGradient id="_Áåçûìÿííûé_ãðàäèåíò_20" x1="6128.87" y1="-1059.66" x2="6128.87" y2="-1127.28" gradientTransform="translate(6325.7 870.96) rotate(177.13) scale(1 -1)" gradientUnits="userSpaceOnUse"><stop offset="0" stop-color="#d1bde5"/><stop offset="1" stop-color="#f4dbee"/></linearGradient><linearGradient id="linear-gradient-2" x1="6173.34" y1="-1139.57" x2="6210.31" y2="-1075.54" gradientTransform="translate(6325.7 870.96) rotate(177.13) scale(1 -1)" gradientUnits="userSpaceOnUse"><stop offset="0" stop-color="#ffc02d"/><stop offset="1" stop-color="#000"/></linearGradient><radialGradient id="radial-gradient-4" cx="4472.54" cy="1345.3" fx="4472.54" fy="1345.3" r="10.83" gradientTransform="translate(6621.97 1262.91) rotate(-161.69) scale(1.47 -.66)" gradientUnits="userSpaceOnUse"><stop offset="0" stop-color="#afee00"/><stop offset=".06" stop-color="#9dd500"/><stop offset=".2" stop-color="#739d00"/><stop offset=".34" stop-color="#506d00"/><stop offset=".48" stop-color="#334600"/><stop offset=".62" stop-color="#1d2700"/><stop offset=".75" stop-color="#0c1100"/><stop offset=".88" stop-color="#030400"/><stop offset="1" stop-color="#000"/></radialGradient><radialGradient id="radial-gradient-5" cx="964.89" cy="-9776.99" fx="964.89" fy="-9776.99" r="10.83" gradientTransform="translate(6974.53 -1702.41) rotate(101.09) scale(3.17 -.66)" gradientUnits="userSpaceOnUse"><stop offset="0" stop-color="#eeba00"/><stop offset=".06" stop-color="#d5a700"/><stop offset=".2" stop-color="#9d7b00"/><stop offset=".34" stop-color="#6d5500"/><stop offset=".48" stop-color="#463600"/><stop offset=".62" stop-color="#271e00"/><stop offset=".75" stop-color="#110d00"/><stop offset=".88" stop-color="#040300"/><stop offset="1" stop-color="#000"/></radialGradient></defs><g class="cls-41"><g id="Layer_2"><g id="space_background"><g><path class="cls-10" d="m137.7,192.58c-.18-.61-.38-1.27-.6-1.95-.94-3.15-2.04-7.08-3.24-11.91-2.64-10.57-7.21-27.86-10.37-39.74h0c-.95-3.59-1.77-6.67-2.39-8.94-.23-.86-.43-1.61-.6-2.21-.32-1.23-.5-1.9-.5-1.9,0,0-23.1,3.24-33.01-3.72,0,0-.29.3-.81.92-.07.08-.12.15-.19.23-2.65,3.24-9.78,13.42-12.38,31.67-.32,2.26-.57,4.62-.74,7.13-.05.88-.11,1.78-.15,2.71,0,0-9.42,18.44-12.67,40.46,0,.01,0,.03,0,.05h0s-2.59,11.53-2.59,11.53c-.23.6-.47,1.24-.73,1.93-4.42,11.81-16.63,34.58-16.99,45-.25,7.13,4.88,16.59,9.97,24.16-3.64.78-5.17,2.2-5.19,2.22,0,0,0,0,0,0,0,0,0,0,0,0h0s0,0,0,0c.06.1,4.24,7.33,13.2,11.82,0,0-9.6,1.6-11.33,11.87l27.12-10.29-.84-3.39,2.38-7.81s0,0-.02,0c0,0,.01,0,.01,0-.37-.16-.73-.3-1.09-.44,3.16-10.82,9.29-29.75,16.55-41.63l.79-1.26c.14-.21.27-.43.41-.63l10.25,1.84s.01-.03.02-.09c.01-.04.02-.09.05-.16.01-.04.02-.09.05-.15.01-.06.04-.12.06-.19,1.44-4.24,11.31-30.63,38.91-47.97,0,0-1.23-2.47-3.33-9.13Z"/><path class="cls-10" d="m.35,104.89c.98,6.78,4.63,12.15,7.96,15.77,3.2,3.49,6.11,5.36,6.11,5.36,0,0,5.3-3.72,6.68-10.33,0,0,1.13-3.18.84-5.01-.64-4.05-2.72-9.87-5.04-12.81l-1.91,1.97s-1.78-3.99-11.36-6.41c0,0-4.98-.24-3.28,11.46Z"/><path class="cls-10" d="m104.5,115.1c2.35-5.37,5.94-9.32,10.32-13.05,4.97-4.23,11.39-6.8,17.62-8.56,3.8-1.07,7.73-1.92,11.42-3.36.12-.09.25-.18.37-.28,1.73-1.83,3.31-3.8,4.76-5.87.73-1.28,1.39-2.6,2-3.94-1.25-1.86-2.44-3.76-3.36-6.03-1.64-4.09-2.07-9.38-1.43-13.75.08-.54.19-1.06.32-1.59-.5-1.72-.94-3.45-1.12-5.23-2.65,3.91-7.67,10.93-12.12,23.31-1.1,3.04-2.16,6.4-3.15,10.12l-5.78-.76s-11.28,23.81-41.55,21.82c-24.61-1.64-35.11-16.43-37.86-21.7-.07-.22-.1-.45-.15-.65-1.93-9.19-1.62-27.88,3.99-45.38,3.98-12.4,10.59-24.23,21-31.68.47-.32.96-.65,1.52-.93l.81-.42c1.92-.94,4.24-1.69,6.9-2.27,3.91-.86,8.48-1.34,13.46-1.43,9.84.49,23.1,3.11,35.31,11.86,12.01,8.61,16.92,19.54,18.69,26.95.57-1.91,1.35-3.75,2.36-5.45,3.2-5.36,6.07-8.33,10.7-12.51.13-.12.26-.23.39-.35-4.03-4.72-8.99-9.01-15.13-12.43C130.49,3.56,109.3-.3,92.29.02c-5.32.11-10.19.63-14.36,1.54-2.83.61-5.32,1.41-7.36,2.42l-.85.44c-.59.3-1.12.64-1.61,1-26.75,19.09-30.16,65.42-26.67,82.15.07.24.1.47.17.72.87,3.18,3.05,7.08,6.27,11.09,0,0,.17.26.56.67,6.04,7.33,15.41,14.99,26.25,19.72,7.69,3.36,17.3,6.35,27.43,8-.21-4.31.64-8.66,2.39-12.67Z"/><path class="cls-10" d="m15.32,129.44c.62,12.44,21.14,34.06,35.5,36.52.64.12,1.29.17,1.93.22,8.95.43,17.68-6.39,22.64-11.18,2.63-2.52,4.21-4.48,4.21-4.48l8.99-28.16s-.38-.04-1.04-.08c-2.06-.12-6.88-.27-11.79.73-6.49,1.31-26.73-.91-35.9-6.39-9.17-5.48-11.72-9.87-14.2-10.31-2.49-.44-5.59,3.1-5.59,3.1,0,0-5.4,6.91-4.74,20.04Z"/><path class="cls-51" d="m218.02,280.72c3.12-.16,6.43-.7,9.97-1.7,19.41-5.51,26.63-27.47,22.2-44.65-4.53-17.57-22.4-35.17-57.82-26.94-62.11,14.43-73.93-7.78-74.04-8.01l-3.88,1.92c.52,1.05,13.49,25.49,78.9,10.3,32.36-7.52,48.41,7.37,52.65,23.81,3.93,15.22-2.3,34.61-19.19,39.41-20.85,5.92-33.02-5.92-45.91-18.46-5.1-4.96-10.38-10.1-16.23-14.06-20.82-14.09-41.09-7.4-41.94-7.1l1.4,4.1c.19-.07,19.15-6.25,38.12,6.59,5.53,3.75,10.67,8.74,15.64,13.58,11.2,10.89,22.72,22.1,40.14,21.22Z"/><path class="cls-16" d="m149.39,313.21s7.46,17.87,20.05,16.88l-20.05-16.88Z"/><path class="cls-15" d="m15.38,130.66c.6,12.05,21.08,32.95,35.44,35.31.64.11,1.29.17,1.93.21,8.95.4,17.69-6.22,22.66-10.86,2.64-2.44,4.22-4.34,4.22-4.34l9.03-27.28s-.38-.04-1.04-.08c-2.06-.11-6.87-.25-11.8.72-6.49,1.28-26.72-.84-35.89-6.13-9.16-5.29-11.7-9.54-14.18-9.96-2.49-.42-5.6,3.01-5.6,3.01,0,0-5.41,6.7-4.78,19.41Z"/><path class="cls-8" d="m20.16,111.26s4.64-.23,5.48,2.87c.84,3.11-1.89,19.53-10.26,16.53-8.36-3,4.78-19.4,4.78-19.4h0Z"/><path class="cls-12" d="m22.02,112.88s-1.32,8.83-8.38,14.45c0,0-.86-11.66,8.38-14.45Z"/><path class="cls-19" d="m2.46,105.98c.9,6.41,4.19,11.49,7.19,14.92,2.88,3.31,5.5,5.08,5.5,5.08,0,0,4.75-3.5,5.98-9.75,0,0-.12-1.16-.38-2.9-.58-3.83-1.84-10.42-3.93-13.21l-1.41,3.83s-1.42-6.49-10.03-8.8c0,0-4.48-.24-2.92,10.82Z"/><path class="cls-39" d="m50.58,122.12s2.71,8.52-1.34,23.31c-4.05,14.79-14.34,12.64-14.34,12.64,0,0,5.14,4.17,9.3,5.75,0,0,25.57,1.57,15.87-39.92l-9.49-1.78Z"/><path class="cls-6" d="m75.41,155.32c-.32,2.26-.58,4.62-.75,7.13l13.08-12.3,2.59-26.12-2.52-.64c-.07.08-.12.15-.19.23-2.06-.11-6.87-.25-11.8.72,0,0,12.72,23.86-23.04,41.82t-.03.02c8.95.4,17.69-6.22,22.66-10.86Z"/><path class="cls-12" d="m46.46,290.54s7.59-7.41,29.78,2.06c0,0-12.5,8.38-29.78-2.06Z"/><path class="cls-12" d="m162.28,290.94s-14.73-4.64-27.52,9.59c0,0,5.57,4.65,15.04,2.46,9.47-2.19,12.49-12.05,12.49-12.05Z"/><path class="cls-24" d="m61.01,301.07l11.89-.6s.7-2.81,1.96-7.22c3.18-11.17,9.92-32.57,17.81-44.65h0s-31.49-36.08-31.49-36.08c0,0-1,2.56-2.51,6.63-4.36,11.82-16.38,34.62-16.76,45.04-.53,13.98,19.11,36.88,19.11,36.88Z"/><path class="cls-16" d="m61.18,212.53s7.58,21.79,29.63,35.74l1.87.34,10,1.8s.01-.03.02-.09c.01-.04.02-.09.05-.16.01-.04.02-.09.05-.15.01-.06.04-.12.06-.19,1.42-4.25,11.16-30.65,38.17-48.1,0,0-1.19-2.47-3.22-9.11-.18-.61-.37-1.27-.57-1.95-.91-3.15-1.96-7.07-3.11-11.89-2.54-10.55-6.93-27.81-9.96-39.67h0c-.92-3.58-1.71-6.66-2.3-8.93-.22-.86-.41-1.61-.57-2.21-.31-1.23-.49-1.9-.49-1.9,0,0-22.56,3.33-32.21-3.59,0,0-.29.3-.79.92-.07.08-.12.15-.19.23-2.6,3.25-9.6,13.45-12.21,31.7-.32,2.26-.58,4.62-.75,7.13-.06.88-.11,1.78-.15,2.71,0,0-9.27,18.46-12.53,40.48-.33,2.27-.61,4.57-.8,6.89Z"/><path class="cls-26" d="m118.41,156.06s0,.01,0,.03c.17.76.37,1.53.56,2.33,3.15,12.48,9.91,25.85,18.83,34.19,5.47,5.11,11.74,8.32,18.5,8.3,15.09-.06,24.5-9.59,26.99-12.48.08-.11.16-.2.23-.27.07-.1.14-.18.19-.24.16-.2.24-.3.24-.3,0,0,5.39-1.64,5.24-7.24-.14-5.61-2.49-14.25-2.49-14.25l-2.65-.97s-.62-3.93-4.32-4.98c-3.72-1.04-12.64-.32-23.2-6.36-9.28-5.3-22.36-16.03-26.57-20.24-.59-.59-1.01-1.05-1.21-1.36-1.67-2.47-4.68-4.27-4.68-4.27h-1.69s-1.11,0-1.11,0h-3.42s-4.34,7.12.54,28.11Z"/><path class="cls-17" d="m102.67,250.41s15.82,25.9,19.44,32.7c3.62,6.8,16.57,19.28,24.14,22.87.19.09.38.18.56.25,7.25,3.13,11.89-.87,11.89-.87,0,0,.28-1.57.71-4.07.56-3.31,1.36-8.22,2.06-13.15.94-6.56,1.68-13.14,1.42-15.98-.44-4.83-12.17-40.98-18.25-59.53-2.16-6.55-3.61-10.91-3.61-10.91-26.21,9.39-36.81,43.26-38.17,48.1-.03.07-.05.13-.06.19-.03.06-.04.1-.05.15-.02.07-.04.12-.05.16-.01.06-.02.09-.02.09Z"/><path class="cls-12" d="m115.99,127.87s-12.26,4.38-16.64,4.33c-4.38-.05-10.75-9.72-10.75-9.72,0,0,9.02,4.19,27.39,5.39Z"/><path class="cls-12" d="m124.09,127.96s-10.32,32.28,9.01,60.44c0,0-18.86-21.38-17.11-60.54l8.1.1Z"/><path class="cls-12" d="m90.32,124.03s-12.17,22.9-15.82,41.13c0,0-.73-21.69,10.45-41.62l3.65-1.07,1.72,1.55Z"/><path class="cls-12" d="m143.23,208.41s-17.99,5.97-38.01,46.18l-2.55-4.18s10.77-41.79,38.34-48.69l2.22,6.69Z"/><path class="cls-12" d="m61.97,205.68s10.51,32.07,30.7,42.92l-1.47,2.38s-21.62-8.04-31.82-33.72l2.59-11.59Z"/><path class="cls-8" d="m183.97,187.62s5.39-1.64,5.24-7.24c-.14-5.61-2.49-14.25-2.49-14.25l-2.65-.97s-12.93,9.82-.1,22.45Z"/><path class="cls-12" d="m186.71,183.51s-6.23-11.05.02-17.38c0,0,4.36,15.05-.02,17.38Z"/><path class="cls-19" d="m184.23,171.45s1.81-7.48,8.76-9.29l.18,3.55s9.66-5.83,16.39.05c0,0-3.53,14.89-23.73,16.16,0,0-2.62-4.22-1.6-10.46Z"/><path class="cls-39" d="m159.84,260.47s.42,11-15.02,17.11c-15.43,6.11-26.1-.44-26.1-.44,0,0,3.92,7.68,7.17,11.35,3.25,3.67,26,2.03,36.63-8.64,0,0,.96-5.68.17-8.92-.79-3.24-2.84-10.46-2.84-10.46Z"/><path class="cls-39" d="m84.77,264.24s-10.84,6.41-22.63,8.09c-11.79,1.69-20.13-4.58-20.13-4.58,0,0,1.56,7.75,4.87,12.71,0,0,12.69,3.08,20.32,1.05,7.63-2.03,13.97-7.94,13.97-7.94l3.6-9.33Z"/><path class="cls-39" d="m153.82,152.18s-24.18,17.76-6.89,46.67c0,0-4.78-1.89-8.55-5.71-5.89-5.47-14.35-41.99,8.33-45.95l7.11,4.99Z"/><path class="cls-42" d="m92.5,248.67l.33-.14c-.1-.23-9.85-23.51-10.67-39.93-.71-14.22,1.05-21.31,3.49-31.13.92-3.71,1.97-7.91,2.97-12.98,3.54-17.83,8.84-31.98,8.89-32.12l-.34-.13c-.05.14-5.36,14.32-8.91,32.18-1.01,5.06-2.05,9.26-2.97,12.96-2.45,9.85-4.22,16.96-3.5,31.23.83,16.49,10.6,39.82,10.7,40.05Z"/><path class="cls-9" d="m73.9,293.31l.97-.05c3.18-11.17,9.92-32.57,17.81-44.65l10,1.8s15.82,25.9,19.44,32.7c3.62,6.8,16.57,19.28,24.14,22.87.19.09.38.18.56.25l12.59-4.94c.56-3.31,1.36-8.22,2.06-13.15l-.85-.54s-14.27,9.22-26.27,4.68c-12-4.54-23.74-39.5-21.81-44.69,7.18-19.36,23.5-30.33,32.11-34.97-2.16-6.55-3.61-10.91-3.61-10.91,0,0-1.19-2.47-3.22-9.11,5.47,5.11,11.74,8.32,18.5,8.3,15.09-.06,24.5-9.59,26.99-12.48-2.75,3.01-14.12,13.61-34.93,8.63-4.42-1.05-8.1-3.34-11.14-6.4-13.61-13.68-14.73-43.03-13.77-48.95.17-.99.4-1.85.69-2.62h0c1.85-4.83,5.82-5.51,5.82-5.51-.59-.59-1.01-1.05-1.21-1.35-1.67-2.47-4.68-4.27-4.68-4.27h-1.69c-.13.55-.32,1.3-.54,2.21-1.16,5-3.15,14.97-3.45,25.9t0,.03c-.2,6.71.24,13.81,1.89,20.35,5.48,21.76,8.16,25.91,8.16,25.91,0,0-17.88,27.77-28.46,32.73-10.6,4.95-30-14.01-34.01-21.7-1.92-3.65-3.18-6.14-4.01-7.74-.33,2.27-.61,4.57-.8,6.89,0,0-1,2.56-2.51,6.63,3.85,8,16.87,35.62,17.91,45.49,1.22,11.61-2.68,28.67-2.68,28.67Z"/><path class="cls-27" d="m124.09,127.96s-9.72,16.3-29.2,21.83c-19.48,5.53-15.18-26.07-15.18-26.07l5.23-.18,2.86-.15,36.29,4.57Z"/><path class="cls-8" d="m74.7,303.81l-.81-3.38,2.35-7.82s-18.53,2.75-29.79-2.07c0,0,4.05,7.28,12.84,11.77,0,0-10.49,1.62-12.93,11.6l28.33-10.09Z"/><path class="cls-8" d="m134.82,300.55l14.4,9.2.17,3.46s6.28,13.09,20.06,16.88c0,0,1.21-12.18-10.22-21.82l3.06-17.33s-3.74,6.08-11.28,9.78c-7.21,3.52-15.46.14-16.19-.17Z"/><polygon class="cls-16" points="74.7 303.82 75.89 305.67 46.83 315.71 46.37 313.9 74.7 303.82"/><path class="cls-7" d="m46.45,290.54s4.05,7.28,12.84,11.77c0,0,10.95.09,15.4,1.51l-.81-3.38,2.35-7.82s-18.53,2.75-29.79-2.07Z"/><path class="cls-18" d="m134.82,300.55l14.4,9.2c5.49.56,10.01-1.48,10.01-1.48l3.06-17.33s-3.74,6.08-11.28,9.78c-7.21,3.52-15.46.14-16.19-.17Z"/><path class="cls-22" d="m203.19,175.43s-7.41,4.35-13.21,2.85c-5.81-1.5-5.42-7.85-5.42-7.85,0,0-2.16,4.61,1.28,11.48,0,0,11.38-.5,17.36-6.49Z"/><path class="cls-20" d="m9.65,120.91c2.88,3.31,5.5,5.08,5.5,5.08,0,0,4.75-3.5,5.98-9.75,0,0-.12-1.16-.38-2.9,0,0-1.68,6.22-11.11,7.56Z"/><path class="cls-8" d="m97.13,159.51c.26,5.22,4.71,9.24,9.93,8.98,5.22-.26,9.24-4.71,8.98-9.93-.26-5.22-4.71-9.24-9.93-8.98-5.22.26-9.24,4.71-8.98,9.93Z"/><path class="cls-19" d="m100.64,159.34c.16,3.28,2.96,5.81,6.24,5.64,3.28-.16,5.81-2.96,5.64-6.24-.16-3.28-2.96-5.81-6.24-5.64-3.28.16-5.81,2.96-5.64,6.24Z"/><path class="cls-8" d="m143.5,144.94s-11.42,6.86-12.28-10.16c0,0,8.83,7.48,12.28,10.16Z"/><path class="cls-42" d="m87.73,257.71l.05-.36c-.32-.05-32.2-5-38.56-15.89l-.31.18c6.45,11.03,37.5,15.86,38.82,16.06Z"/><path class="cls-42" d="m110.8,264.62c.02-.08,1.71-7.92,6.65-15.88,7.78-12.52,30.98-23.74,31.21-23.85l-.16-.33c-.23.11-23.52,11.38-31.36,23.99-4.98,8.01-6.68,15.92-6.7,15.99l.35.08Z"/><path class="cls-42" d="m170.76,197.68l.35-.08c-3.78-16.84-1.2-26.08,1.63-30.86,3.05-5.15,7.02-6.37,7.06-6.38l-.1-.34c-.17.05-4.14,1.27-7.27,6.54-2.86,4.84-5.48,14.17-1.67,31.13Z"/><path class="cls-42" d="m26.28,150.23c16.32-12.74,5.53-37.65,5.42-37.9l-.33.15c.11.25,10.78,24.91-5.31,37.47l.22.28Z"/><path class="cls-33" d="m105.27,187.18s.06,2.43,1.28,6.32l4.45-.69s-.15-3.55-2.3-6.12l-3.42.49Z"/><path class="cls-33" d="m170.51,160.65s-2.46.05-4.53-1.12l-2.21,1.46s2.67,2.91,5.55,1.85l1.18-2.19Z"/><path class="cls-33" d="m150.75,260.01s2.01,2.89,2.17,6.09l-3.35,1.51-1.72-6.02,2.9-1.58Z"/><path class="cls-33" d="m26.3,108.72s1.64,1.39,2.2,4.24l2.74,1.47s-.38-1.38-1.16-2.64-3.78-3.06-3.78-3.06Z"/><path class="cls-33" d="m50.45,251.52s-3.88,6.69-4.24,10.36l-3.06-1.03s.45-5.68,3.68-10.22l3.62.89Z"/><g><path class="cls-53" d="m47.83,85c.05.22.09.43.16.65,2.77,5.16,13.32,19.64,37.92,21.33,30.26,2.07,41.42-21.12,41.42-21.12l5.79.76c.97-3.63,2.02-6.91,3.11-9.87,6.06-16.63,13.24-23.34,13.82-25.84.68-2.94-1.09-21.19-19.56-34.15-12.24-8.59-25.52-11.19-35.34-11.72-4.98.07-9.55.52-13.45,1.35-2.64.56-4.97,1.29-6.88,2.19l-.8.41c-.56.28-1.05.59-1.52.91-10.37,7.22-16.95,18.74-20.87,30.83-5.54,17.07-5.76,35.3-3.81,44.27Z"/><path class="cls-32" d="m47.83,85c.05.22.09.43.16.65,2.77,5.16,13.32,19.64,37.92,21.33,30.26,2.07,41.42-21.12,41.42-21.12l5.79.76c.97-3.63,2.02-6.91,3.11-9.87,6.06-16.63,13.24-23.34,13.82-25.84.68-2.94-1.09-21.19-19.56-34.15-12.24-8.59-25.52-11.19-35.34-11.72-4.98.07-9.55.52-13.45,1.35-2.64.56-4.97,1.29-6.88,2.19l-.8.41c-.56.28-1.05.59-1.52.91-10.37,7.22-16.95,18.74-20.87,30.83-5.54,17.07-5.76,35.3-3.81,44.27Z"/><g class="cls-31"><path class="cls-62" d="m89.66,107.61c-1.22,0-2.48-.04-3.77-.13-26.43-1.81-36.57-18.3-38.33-21.59-.09-.24-.12-.4-.16-.56l-.05-.22c-2.12-9.74-1.49-28.16,3.82-44.53,4.56-14.07,11.65-24.54,21.06-31.09.44-.3.97-.64,1.58-.95l.79-.4c1.93-.91,4.29-1.66,7.01-2.23,3.9-.82,8.46-1.28,13.55-1.36,9.3.5,23.01,2.96,35.63,11.81,17.94,12.59,20.64,30.89,19.76,34.67-.2.88-1.05,2.1-2.34,3.96-2.75,3.96-7.36,10.6-11.49,21.94-1.13,3.06-2.17,6.37-3.1,9.82l-.11.42-5.88-.77c-1.46,2.7-12.39,21.21-37.96,21.21Zm-41.34-22.72l.05.21c.03.13.06.26.1.39,1.69,3.12,11.58,19.21,37.48,20.98,29.55,2.03,40.82-20.61,40.93-20.84l.16-.33,5.72.75c.91-3.33,1.92-6.52,3.01-9.49,4.17-11.45,8.83-18.16,11.61-22.16,1.18-1.7,2.03-2.92,2.19-3.61.5-2.15-.63-20.48-19.36-33.63-12.44-8.72-25.94-11.14-35.08-11.63-4.99.08-9.48.53-13.32,1.34-2.65.56-4.93,1.28-6.77,2.15l-.78.4c-.56.28-1.05.6-1.46.88-9.22,6.42-16.18,16.71-20.67,30.57-5.26,16.2-5.89,34.4-3.8,44.01Z"/></g><path class="cls-45" d="m66.29,71.68c-1.65,3.67-7.8,7.32-6.54,16.02.41,2.84,1.94,6.21,4.25,9.49,4.74,6.77,12.75,13.18,20.85,13.76.36.03.74.03,1.11.05-.51-10.9,7.89-18.86,18.2-20.06,4.22-.49,11.26-3.53,15.51-5.2.38-1.5.72-3.01,1.04-4.52.97-4.63.95-8.43.7-13.23-.55-10.47,6.04-16.83,13.9-18.81-2.12-1.43-3.91-3.22-5.35-5.4-.72-1.49-1.44-2.99-2.16-4.48-1.08-3.35-1.25-6.75-.51-10.19.11-.47.2-.94.33-1.4.03-.1.06-.2.09-.3.23-.72.51-1.53.81-2.35-2.25-3.67-4.52-9.15-5.43-17.09,0,0,0-.01,0-.02,0,0,0,0,0,0,0,0,0,0,0,0,0,0,0,.01,0,.01-.06.06-3.79,3.79-4.06,8.8,0,0-.01,0-.01,0-.08-.1-11.56-14.1-19.35-10.44-1.56.73-2.78,2.2-3.73,4.07-4.52-1.12-10.41-3.01-15.95-6.02-.66.33-1.36.62-2.09.88-.39,1.89-.77,5.02.1,8.07-1.15-.74-2.44-2.96-2.59-4.44,0,0-5.32,8.92-.26,15.97.03.04.05.08.08.12.08.11.18.2.26.31.19.25.36.5.58.74,0,0-.05.03-.12.08-.72.39-1.66,1.21-2.24,1.73-.05.05-.11.1-.17.15-.21.19-.34.32-.34.32,0,0,0,0,0,0-2.78,1.98-5.58,9.54-5.43,15.58,0,0,1.47-1.79,4.58-3.45-.41,1.43-.54,2.67-.54,2.67,0,0,0,0,0,0-1.01,2.8-1.68,5.73-2.04,8.72-.53,4.46-.95,8.12-1.4,11.16-.34,1.5-.6,2.99-.76,4.35-.15.72-.31,1.4-.49,2.02,0,0-.04.1-.08.29-.22.76-.47,1.43-.75,2.04Zm9.8-36.68c.25-.64.46-1.11.54-1.18h0s.6-.4.6-.4c-.41.51-.76,1.05-1.14,1.58Z"/><g><path class="cls-46" d="m114.59,106.83s-1.57,3.82-.69,8.65c0,0-13.97,8.45-18.01,8.45-4.03,0,1.22-6.15,1.22-6.15,0,0,1.74-4.18,1.59-7.87l15.89-3.09Z"/><path class="cls-47" d="m148.57,50.02c2.26,17.66-7.64,40.64-19.57,49.8-11.93,9.15-29.65,12.19-42.55,11.29-8.15-.56-16.21-6.86-20.97-13.51-2.32-3.22-3.85-6.53-4.26-9.33-1.26-8.56,4.94-12.16,6.6-15.77.27-.61.53-1.26.75-2.01.04-.18.08-.28.08-.28,1.08-3.7,1.69-9.17,2.68-17.23,1.23-9.93,5.92-19.15,15.93-25.38,22.03-13.72,59.05,4.76,61.31,22.42Z"/><path class="cls-36" d="m148.57,50.02c2.26,17.66-7.64,40.64-19.57,49.8-11.93,9.15-29.65,12.19-42.55,11.29-8.15-.56-16.21-6.86-20.97-13.51v-.03s7.06,4.84,14.33,6.23c7.26,1.41,23.81-.22,34.25-7.73,10.43-7.52,15.1-17.13,14.05-18.97-1.04-1.84-4.15-.18-4.15-.18,0,0-14.58,12.78-25.67,6.13-8.04-4.83-1.07-35.67,5.9-42.64,0,0,17.11,7.8,20.45,19.08,0,0,3.93-6.75,1.63-15.49-2.3-8.74-11.29-13.01-21.34-12.33-10.04.7-14.15,4.03-14.15,4.03,0,0-9.63,1-12.27,4.7,0,0,3.81,9.51,5.14,15.58,1.35,6.08-2.42,17.45-3.82,18.92-1.41,1.47-7,3.24-10.12,2.52-2.73-.62-1.5-5.68-1.14-6.93.04-.18.08-.28.08-.28,1.08-3.7,1.69-9.17,2.68-17.23,1.23-9.93,5.92-19.15,15.93-25.38,22.03-13.72,59.05,4.76,61.31,22.42Z"/><path class="cls-65" d="m151.01,59.66v.03c-1.97,11.75-8.3,23.66-8.3,23.66-4.01.09-10.72,4.93-11.2,5.25.33-.57,5.84-9.84,5.91-14.74.09-5.06-1.29-14.04-1.29-14.04l.82-7.06c.89-7.78-4.7-14.01-4.7-14.01-7.19-.62-8.88-7.54-8.88-7.54,0,0-2.35-3.8-9.82-4.27-7.47-.47-19.95,6.07-19.95,6.07-4.01.15-9.11-1.79-9.11-1.79-2.74,1.18-6.74,4.46-6.74,4.46-4.67,1.82-8.92,5.68-8.92,5.68,1.29-9.48,8.85-13.74,8.85-13.74-6.44-7.23-2.29-15.57-2.29-15.57,1.7,2.44,4.26,3.07,4.26,3.07-1.37-4.73.37-9.7.37-9.7,10.93,7.26,27.59,8.5,27.59,8.5,6.46-.28,13.34,4.53,13.34,4.53.28-4.98,4.1-8.67,4.1-8.67-1.16,6.67,4.33,17.29,8.54,20.03,4.22,2.74,14.87,5.1,17.57,18.83.66,3.37.49,7.19-.15,11.02Z"/><path class="cls-54" d="m104.19,40.41s-.49,3.44,1.25,6.65c0,0,9.13,2.69,13.19,5.91,4.06,3.21,6,6.51,6,6.51,0,0-4.27-13.49-20.44-19.07Z"/><path class="cls-4" d="m76.72,37.77s4.69,5.28,6.79,17.32c0,0-4.91-13.79-10.13-10.68,0,0,.58-5.63,3.34-6.64Z"/><path class="cls-38" d="m96.67,68.3s1.68-9.53,9.46-10.76c6.3-1,12.49,4.87,13.24,15.48l-22.7-4.72Z"/><path class="cls-40" d="m86.59,80.71s-3.14-5.47-5.66-5.36c-2.52.11-7.38,3.85-7.38,3.85,0,0,1.79,2.12,5.36,2.64,3.56.52,7.69-1.13,7.69-1.13Z"/><path class="cls-44" d="m96.47,78.31c-1.97-5.6.37-16.53,9.03-18.59,8.66-2.06,15.56,9.54,13.53,16.83-1.95,7.02-20.01,9-22.57,1.76Z"/><path class="cls-11" d="m73.54,79.21s2.03,1.79,6.47,1.91c5.49.16,6.58-.41,6.58-.41,0,0,1.61,1.6-.59,2.64-1.46.69-5.98,3.57-10.21,2.2-1.91-.62-3.46-4.96-2.24-6.35Z"/><path class="cls-43" d="m68.93,71.51c.06,2.64.86,4.89,2.95,5.04,2.09.14,7.19-1,9.19-6.11,1.32-3.38-.77-15.55-5.36-16.25-3.91-.6-6.9,12.15-6.78,17.32Z"/><g class="cls-56"><path class="cls-64" d="m107.14,73.46c-1.01,6.21-4.73,10.78-8.3,10.2-3.57-.58-5.64-6.09-4.63-12.3,1.01-6.21,4.73-10.78,8.3-10.2,3.57.58,5.64,6.09,4.63,12.3Z"/><path class="cls-57" d="m104.8,72.79c-.74,4.53-3.45,7.85-6.05,7.43-2.6-.42-4.11-4.44-3.37-8.97.74-4.53,3.45-7.85,6.05-7.43,2.6.42,4.11,4.44,3.37,8.97Z"/></g><g class="cls-50"><path class="cls-61" d="m75.6,69.09c-1.06,5.35-3.55,9.37-5.55,8.97-2-.4-2.77-5.06-1.71-10.41,1.06-5.35,3.55-9.37,5.55-8.97,2,.4,2.77,5.06,1.71,10.41Z"/><path class="cls-57" d="m73.6,68.67c-.77,3.9-2.58,6.83-4.04,6.54-1.46-.29-2.02-3.69-1.25-7.59.77-3.9,2.58-6.83,4.04-6.54,1.46.29,2.02,3.69,1.25,7.59Z"/></g><path class="cls-21" d="m83.2,64.35s-1.77,8.49-4.28,10.69c-2.08,1.82-4.16,2.43-5.62,3.21-1.46.77-.84,5.73,2.48,7.31,0,0-3.88-3.77-2.24-6.35.7-1.1,5.04-1.83,6.72-4.4,2.37-3.63,2.94-10.46,2.94-10.46Z"/><path class="cls-28" d="m80.79,84.86s-2.39-2.48,5-1.66c0,0-1.07.23-2.74.69-1.61.45-2.26.97-2.26.97Z"/><path class="cls-52" d="m71.87,93.05s1.21-.59,2.97-.7c1.76-.12,9.95,1.03,13.56,1.6,3.62.57,6.15,1.52,6.15,1.52l.6-.39s-5.45-2.64-11.13-4.08c-5.68-1.44-8.39-1.37-9.49-1.22-1.09.15-2.56,2.58-2.56,2.58l-.12.69Z"/><path class="cls-33" d="m111.97,68.82c.13.85-.46,1.65-1.32,1.77-.85.13-1.65-.46-1.77-1.32-.13-.85.46-1.65,1.32-1.77s1.65.46,1.77,1.32Z"/><path class="cls-33" d="m78.7,61.58c.11.73-.4,1.4-1.12,1.51-.73.11-1.4-.4-1.51-1.12-.11-.73.4-1.4,1.12-1.51.73-.11,1.4.4,1.51,1.12Z"/><path class="cls-38" d="m71.43,58.97s1.54-5.39,4.71-5.69c3.18-.3,6.28,10.61,5.2,16.07,0,0-.64-11.08-6.28-13.61,0,0-1.97.03-3.63,3.23Z"/><path class="cls-49" d="m125.05,9.77s-5.07,7.47-1.95,18c3.12,10.53,12.96,5.04,12.96,5.04,0,0-8.99-5.51-11.01-23.04Z"/><path class="cls-63" d="m80.02,5.41s-.92,10.61,4.92,15.46,20.47-7.21,20.47-7.21c0,0-13.88-1.6-25.38-8.26Z"/><path class="cls-34" d="m77.68,27.61l6.81,3.59-6.22,4.05s-2.53-2.27-3.47-5.4c0,0,1.79-1.72,2.89-2.24Z"/><path class="cls-35" d="m75.39,12.03s1.24,5.03,8.15,10.82c6.91,5.79,10.07,10.15,10.07,10.15,0,0-12.06-.02-16.77-6.43-4.71-6.41-1.45-14.54-1.45-14.54Z"/><path class="cls-37" d="m151.01,59.66v.03c-1.97,11.75-8.3,23.66-8.3,23.66-4.01.09-10.72,4.93-11.2,5.25.33-.57,5.84-9.84,5.91-14.74.09-5.06-1.29-14.04-1.29-14.04l.82-7.06c.89-7.78-4.7-14.01-4.7-14.01,0,0,6.47.49,9.87-.44,0,0-3.73,3.06-5.66,3.42,0,0,.83,8.73,4.82,15.32,3.99,6.58,9.71,2.62,9.71,2.62Z"/><g><path class="cls-48" d="m134.18,86.5s7.61-5.06,15.22-2.75c7.61,2.32,2.67,17.38-8.13,21.68-10.8,4.3-14.67-2.23-14.53-5.01.14-2.77,7.44-13.93,7.44-13.93Z"/><path class="cls-13" d="m131.9,93.42s6.75-5.09,12.45-4.04c5.7,1.05,2.22,10.29,2.22,10.29,0,0-.33-1.36-2.34-1.66,0,0-3.34,3.34-9.05,4.59,0,0,7.2-3.05,8.37-6.2,0,0-5.35,5.63-9.93,4.02-4.58-1.61-1.73-6.99-1.73-6.99Z"/><path class="cls-21" d="m131.18,97.97s5.94.99,8.05-1.36c2.11-2.35.54-4.92.54-4.92,0,0-4.77-.11-7.33,2.47,0,0-1.46,1.91-1.26,3.81Z"/></g><path class="cls-60" d="m118.57,85.85c.16,1.06-.58,2.05-1.64,2.21s-2.05-.58-2.21-1.64c-.16-1.06.58-2.05,1.64-2.21,1.06-.16,2.05.58,2.21,1.64Z"/><path class="cls-55" d="m94.28,33.35s-.67-21.53,7.2-25.16c7.87-3.62,19.47,10.25,19.47,10.25,0,0-.2,5.07.68,8.42,0,0-8.68-5.65-16.57-4.44-7.89,1.21-10.78,10.93-10.78,10.93Z"/></g><path class="cls-45" d="m100.51,8.72c-1.62,1.43-2.66,2.99-4.02,6.1-1.29-1.64-.57-4.41-.57-4.41l4.59-1.68Z"/><polygon class="cls-45" points="77.68 27.61 78.97 28.74 75.83 27.4 77.68 27.61"/><path class="cls-45" d="m121.97,14.31c-.97,2.51-1.02,5.49-.54,8.76-.57.03-2.24-6.69-2.24-6.69l2.78-2.08Z"/><path class="cls-14" d="m44.5,86.93c.07.24.1.46.18.7.88,3.11,3.08,6.92,6.31,10.85,0,0,.17.25.56.66,6.06,7.18,15.46,14.7,26.31,19.35,17.59,7.57,45.2,13.29,66.08,5.75,20.86-7.54,37.72-42.02,36.18-54.93-.42-3.46-1.07-8.08-2.34-13.27-3.44-14.15-11.3-32.5-30.28-42.9-14.33-7.86-35.52-11.71-52.51-11.46-5.31.08-10.18.57-14.35,1.45-2.82.59-5.31,1.36-7.35,2.33l-.85.43c-.59.29-1.12.62-1.61.97-26.66,18.53-29.87,63.73-26.32,80.08Zm7.15-46.21c3.92-12.09,10.49-23.6,20.86-30.84.47-.31.96-.63,1.51-.91l.81-.4c1.92-.91,4.23-1.63,6.89-2.19,3.9-.82,8.47-1.27,13.44-1.34,9.84.52,23.09,3.13,35.33,11.72,18.47,12.97,20.25,31.2,19.57,34.15-.58,2.5-7.77,9.21-13.83,25.83-1.08,2.97-2.13,6.24-3.11,9.86l-5.78-.76s-11.17,23.19-41.43,21.13c-24.6-1.7-35.15-16.18-37.92-21.34-.07-.22-.1-.44-.15-.64-1.97-8.98-1.73-27.22,3.81-44.28Z"/><path class="cls-29" d="m47.83,85c.05.22.09.43.16.65,2.77,5.16,13.32,19.64,37.92,21.33,30.26,2.07,41.42-21.12,41.42-21.12l5.79.76c.97-3.63,2.02-6.91,3.11-9.87,6.06-16.63,13.24-23.34,13.82-25.84.68-2.94-1.09-21.19-19.56-34.15-12.24-8.59-25.52-11.19-35.34-11.72-4.98.07-9.55.52-13.45,1.35-2.64.56-4.97,1.29-6.88,2.19l-.8.41c-.56.28-1.05.59-1.52.91-10.37,7.22-16.95,18.74-20.87,30.83-5.54,17.07-5.76,35.3-3.81,44.27Z"/><path class="cls-1" d="m47.83,85c.05.22.09.43.16.65,2.77,5.16,13.32,19.64,37.92,21.33,30.26,2.07,41.42-21.12,41.42-21.12l5.79.76c.97-3.63,2.02-6.91,3.11-9.87,6.06-16.63,13.24-23.34,13.82-25.84.68-2.94-1.09-21.19-19.56-34.15-12.24-8.59-25.52-11.19-35.34-11.72-4.98.07-9.55.52-13.45,1.35-2.64.56-4.97,1.29-6.88,2.19l-.8.41c-.56.28-1.05.59-1.52.91-10.37,7.22-16.95,18.74-20.87,30.83-5.54,17.07-5.76,35.3-3.81,44.27Z"/><path class="cls-25" d="m51.55,99.14c6.06,7.17,15.46,14.68,26.3,19.36,17.6,7.57,45.21,13.27,66.08,5.73,20.86-7.54,37.72-42.01,36.18-54.92-.41-3.45-1.07-8.07-2.35-13.27-1.71-3.15-4.32-5.47-8.25-5.86-14.43-1.44-30.53,42.15-30.53,42.15l-6.52-2.43s-11.46,24.38-41.01,25.27c-25.85.78-37.24-13.13-39.91-16.03Z"/><path class="cls-23" d="m153.78,118.54c-8.26,3.92-19.49-1.89-14.35-25.06,5.19-23.25,24.33-41.71,24.33-41.71-19.47-3.38-28.31,36.9-28.31,36.9-.13,1.78-.22,3.45-.25,5.03v.17c-.84,33.45,17.01,25.44,18.57,24.68Z"/><path class="cls-12" d="m180.12,72.86c.28-8.34-3.05-14.99-7.53-16.15-4.48-1.15-22.05,15.32-25.99,38.57-3.94,23.25,12.45,20.12,17.78,12.4l3.02-4.17s-15,11.07-16.72-4.3c-1.96-17.55,16.74-33.88,22.67-29.26,5.93,4.62,2.76,17.51,2.76,17.51,0,0,3.82-9.07,4.01-14.6Z"/><path class="cls-33" d="m140.43,47.9s1.86-6.73,1.75-8.94c0,0-3.2-5-8.15-8.08l-7.39,10.7s10.96,4.43,13.8,6.32Z"/><path class="cls-33" d="m121.01,85.06s-3.12,5.29-6.72,7.91l-2.76-2.83s4.03-4.4,6.05-7.18l3.43,2.1Z"/><path class="cls-30" d="m44.5,86.93c.06.23.1.46.17.69,2.95,5.5,14.21,20.94,40.44,22.74,32.26,2.21,44.16-22.52,44.16-22.52l6.17.81c1.04-3.87,2.15-7.36,3.32-10.52h-.02S103.72,15.32,48.57,39.73c-5.91,18.2-6.15,37.64-4.06,47.21Z"/><path class="cls-2" d="m82.25,35.23c-1.24,3.75,4.52,9.03,12.87,11.79,8.35,2.76,16.12,1.96,17.37-1.79,1.24-3.75-4.52-9.03-12.87-11.79s-16.12-1.96-17.37,1.79Z"/><path class="cls-3" d="m42,92.73c3.88.76,9.97-13.71,13.62-32.32,3.65-18.61,3.46-34.31-.42-35.07-3.88-.76-9.97,13.71-13.62,32.32s-3.46,34.31.42,35.07Z"/><path class="cls-33" d="m141.85,19.82s-15.29-11.76-26.46-14.82c0,0,40.69,6.99,26.46,14.82Z"/><polygon class="cls-33" points="152.38 65.53 146.38 61.74 142.58 68.38 148.54 71.48 152.38 65.53"/></g><polygon class="cls-10" points="72.72 164.85 78.94 149.84 74.5 165.16 71.61 171.95 72.72 164.85"/><g class="cls-58"><path class="cls-5" d="m250.19,234.37c-4.53-17.57-22.4-35.18-57.83-26.95-21.51,5-36.99,5.6-48.04,4.24-1.98-6.01-3.29-9.95-3.29-9.95,0,0-1.19-2.47-3.21-9.1.17.16.35.31.52.47.02.02.04.04.05.05,3.77,3.82,8.55,5.71,8.55,5.71,0,0,0,0,0,0,2.99,1.34,6.13,2.08,9.38,2.07,5.72-.02,10.62-1.4,14.63-3.27l.17-.04s0-.02,0-.04c6.49-3.05,10.66-7.35,12.2-9.13.08-.1.16-.2.23-.27.07-.1.14-.18.19-.24.16-.2.25-.3.25-.3,0,0,4.62-1.41,5.18-6.06,2.34-.35,4.42-.9,6.27-1.58,2.75-.96,5.58-2.39,7.73-4.52,5.17-4.52,6.4-9.71,6.4-9.71-6.73-5.88-16.39-.05-16.39-.05l-.17-3.55c-2.86.74-4.85,2.45-6.2,4.2-.04-.15-.07-.23-.07-.23l-2.65-.96s-.62-3.92-4.33-4.98l-.05-.18s-.12.04-.27.09c-3.89-.93-12.61-.41-22.88-6.28-.88-.5-1.79-1.05-2.73-1.64l-7.1-4.99c-.05,0-.1.02-.15.03-1.03-.75-2.05-1.51-3.06-2.28-1.73-1.34-4.8-3.88-7.44-6.09-2.64-2.21-4.84-4.08-4.84-4.08-.47-.44-.89-.84-1.24-1.19t0,0c-.59-.59-1-1.05-1.2-1.35-1.67-2.48-4.68-4.27-4.68-4.27h-.03s-1.45-.18-1.45-.18c7.43-.09,14.71-1.15,21.31-3.53,7.22-2.61,13.95-8.44,19.61-15.49.24-.28.47-.57.68-.86,6.82-8.74,11.99-19.17,14.44-27.63.71-2.4,1.32-5,1.44-7.13.13-1.41.14-2.7,0-3.82-.07-.64-.17-1.34-.26-2.05,0,0,0-.01,0-.02-.05-.4-.11-.82-.17-1.25-.03-.15-.05-.3-.07-.46-.06-.39-.11-.78-.18-1.18-.01-.11-.03-.21-.05-.32-.39-2.42-.9-5.11-1.6-7.98-3.44-14.15-11.3-32.5-30.29-42.9-.05-.03-.1-.05-.15-.08-.82-.52-1.67-1.03-2.54-1.52C130.49,3.56,109.3-.3,92.29.02c-5.32.11-10.19.63-14.36,1.55-2.82.61-5.32,1.41-7.36,2.42l-.85.44c-.59.3-1.12.64-1.62,1-26.75,19.09-30.15,65.42-26.67,82.15.07.24.1.47.18.72.87,3.18,3.05,7.08,6.26,11.09,0,0,.17.26.56.67,6.04,7.33,15.41,14.99,26.25,19.71,2.01.88,4.16,1.73,6.4,2.54-1.67.11-3.49.32-5.32.69-6.5,1.31-26.73-.91-35.9-6.39-9.17-5.48-11.72-9.87-14.2-10.32-1.46-.25-3.12.85-4.25,1.81-.93-3.67-2.64-7.87-4.5-10.23l-1.91,1.97s-1.79-3.99-11.36-6.41c0,0-4.98-.24-3.28,11.46.98,6.78,4.63,12.15,7.96,15.77,1.71,1.87,3.32,3.26,4.47,4.16-.53,2.65-.01,4.89,2.6,5.83h0c.28,5.52,4.71,12.88,10.82,19.47l.08.1s0,0,0,0c2.63,2.83,5.57,5.52,8.62,7.85,0,0,1.28,1.04,3.09,2.28,1.8,1.24,4.13,2.68,6.21,3.47h0c2.28,1.05,4.52,1.8,6.62,2.14.64.11,1.3.17,1.93.2.56.02,1.11.02,1.67,0,0,0,0,0,.01,0,7.21-.36,14.14-4.95,18.89-9-.19,1.6-.35,3.25-.47,4.97-.05.89-.1,1.78-.15,2.71,0,0-9.42,18.44-12.67,40.46v.05s-2.6,11.53-2.6,11.53c-.23.6-.47,1.24-.73,1.93-4.42,11.81-16.63,34.58-16.99,45-.25,7.13,4.88,16.59,9.97,24.16-3.64.77-5.17,2.2-5.19,2.22h0c.03.06,1.09,1.89,3.26,4.27,2.17,2.38,5.46,5.31,9.94,7.56,0,0-9.6,1.6-11.34,11.86l28.33-10.09-.81-3.38,2.35-7.82s0,0-.02,0c0,0,.01,0,.01,0-.36-.15-.71-.29-1.06-.44,1.44-4.99,3.51-11.72,6.02-18.68l3.54-9.17c.94-2.27,1.93-4.5,2.94-6.62h.05s.03-.17.03-.17c1.2-2.52,2.46-4.88,3.74-7.03l.78-1.26c.13-.21.26-.42.39-.62l9.27,1.66s0,0,0,0l.74.13h0s3.74,6.13,8,13.21c-.15.58-.22.92-.23.94l.35.07s.05-.22.13-.58c2.69,4.46,5.55,9.26,7.79,13.1,0,.01,1.62,3.17,3.63,6.4.51.88,1.15,1.86,1.92,2.88.53.73,1.05,1.41,1.56,1.99,2.83,3.44,6.61,7.26,10.42,10.53-.5.5-1,1.02-1.49,1.57,0,0,.59.49,1.72,1.09l12.74,8.14.18,3.46s.02.04.05.1c.63,1.44,7.97,17.71,19.99,16.77h.02s1.21-12.17-10.23-21.81l3.06-17.33s0,0,0,0c0,0,0,0,0,0,0,0-.42-.13-1.18-.28.12-.83.24-1.68.36-2.52h0c.41-2.87.78-5.74,1.05-8.3.05-.31.93-5.75.17-8.9-.92-4.43-4.64-16.59-8.74-29.51,2.72,1.14,5.5,2.62,8.29,4.5,5.53,3.75,10.67,8.74,15.64,13.58,11.2,10.89,22.72,22.1,40.14,21.22,3.12-.15,6.43-.7,9.97-1.7,19.41-5.51,26.64-27.47,22.2-44.65Zm-23.38,40.48c-20.85,5.91-33.02-5.92-45.91-18.46-5.1-4.96-10.38-10.1-16.23-14.06-4.21-2.85-8.4-4.85-12.41-6.22-1.22-3.81-2.45-7.61-3.62-11.22,0,0,.02,0,.02,0l-.08-.16c-.99-3.03-1.93-5.92-2.79-8.57,11.46,1.12,26.88.29,47.55-4.51,32.36-7.52,48.42,7.37,52.65,23.81,3.93,15.22-2.29,34.61-19.19,39.41Z"/></g></g></g></g></g></svg>