<svg width="700" height="700" viewBox="0 0 700 700" fill="none" xmlns="http://www.w3.org/2000/svg">
<g clip-path="url(#clip0_1_2)">
<path d="M69.9007 280.521C88.4419 280.525 106.222 287.894 119.331 301.007L349.563 531.239L579.795 301.007C586.244 294.329 593.959 289.003 602.489 285.338C611.019 281.674 620.194 279.746 629.477 279.665C638.76 279.584 647.967 281.353 656.559 284.869C665.151 288.384 672.958 293.576 679.522 300.14C686.087 306.705 691.278 314.511 694.794 323.103C698.309 331.696 700.078 340.902 699.997 350.185C699.917 359.469 697.988 368.643 694.324 377.173C690.66 385.703 685.333 393.418 678.656 399.867L398.993 679.53C385.882 692.637 368.102 700 349.563 700C331.024 700 313.244 692.637 300.133 679.53L20.4703 399.867C10.6954 390.089 4.03907 377.633 1.3426 364.073C-1.35387 350.512 0.0306855 336.457 5.3212 323.683C10.6117 310.91 19.5707 299.992 31.0655 292.309C42.5603 284.626 56.0748 280.524 69.9007 280.521Z" fill="#FF8E31"/>
<path d="M69.9007 0.859058C88.4419 0.863019 106.222 8.23165 119.331 21.3443L349.563 251.576L579.795 21.3443C586.245 14.6667 593.959 9.34043 602.489 5.67623C611.019 2.01202 620.194 0.0832467 629.477 0.00257776C638.76 -0.0780912 647.967 1.69088 656.559 5.2063C665.151 8.72171 672.958 13.9132 679.522 20.4778C686.087 27.0424 691.278 34.8486 694.794 43.441C698.309 52.0334 700.078 61.2397 699.997 70.5231C699.917 79.8064 697.988 88.9807 694.324 97.5107C690.66 106.041 685.333 113.756 678.656 120.205L398.993 399.867C385.882 412.974 368.102 420.338 349.563 420.338C331.024 420.338 313.244 412.974 300.133 399.867L20.4703 120.205C10.6954 110.427 4.0391 97.9707 1.34262 84.4104C-1.35385 70.85 0.0307103 56.7947 5.32123 44.0211C10.6117 31.2476 19.5707 20.3293 31.0655 12.6467C42.5603 4.96407 56.0749 0.862009 69.9007 0.859058Z" fill="#FF8E31"/>
</g>
<defs>
<clipPath id="clip0_1_2">
<rect width="700" height="700" fill="white" transform="translate(700 700) rotate(-180)"/>
</clipPath>
</defs>
</svg>
