<svg width="700" height="700" viewBox="0 0 700 700" fill="none" xmlns="http://www.w3.org/2000/svg">
<g clip-path="url(#clip0_1_2)">
<path d="M630.099 419.479C611.558 419.475 593.778 412.106 580.669 398.993L350.437 168.761L120.205 398.993C113.756 405.671 106.041 410.997 97.5107 414.662C88.9808 418.326 79.8065 420.254 70.5231 420.335C61.2398 420.416 52.0333 418.647 43.4409 415.131C34.8486 411.616 27.0423 406.424 20.4778 399.86C13.9132 393.295 8.72177 385.489 5.20636 376.897C1.69094 368.304 -0.0780299 359.098 0.00263981 349.815C0.0833095 340.531 2.01202 331.357 5.67623 322.827C9.34043 314.297 14.6668 306.582 21.3444 300.133L301.007 20.4703C314.118 7.3632 331.898 0 350.437 0C368.976 0 386.756 7.3632 399.867 20.4703L679.53 300.133C689.305 309.911 695.961 322.367 698.657 335.927C701.354 349.488 699.969 363.543 694.679 376.316C689.388 389.09 680.429 400.008 668.935 407.691C657.44 415.374 643.925 419.476 630.099 419.479Z" fill="#FF8E31"/>
<path d="M630.099 699.141C611.558 699.137 593.778 691.768 580.669 678.656L350.437 448.424L120.205 678.656C113.756 685.333 106.041 690.66 97.5107 694.324C88.9808 697.988 79.8065 699.917 70.5231 699.997C61.2398 700.078 52.0333 698.309 43.4409 694.794C34.8486 691.278 27.0423 686.087 20.4778 679.522C13.9132 672.958 8.72177 665.151 5.20636 656.559C1.69094 647.967 -0.0780299 638.76 0.00263981 629.477C0.0833095 620.194 2.01202 611.019 5.67623 602.489C9.34043 593.959 14.6668 586.245 21.3444 579.795L301.007 300.133C314.118 287.026 331.898 279.662 350.437 279.662C368.976 279.662 386.756 287.026 399.867 300.133L679.53 579.795C689.305 589.573 695.961 602.029 698.657 615.59C701.354 629.15 699.969 643.205 694.679 655.979C689.388 668.752 680.429 679.671 668.935 687.353C657.44 695.036 643.925 699.138 630.099 699.141Z" fill="#FF8E31"/>
</g>
<defs>
<clipPath id="clip0_1_2">
<rect width="700" height="700" fill="white"/>
</clipPath>
</defs>
</svg>
