<?xml version="1.0" encoding="utf-8"?>
<!-- Generator : CXeditor 3.0 -->
<svg xmlns="http://www.w3.org/2000/svg" xmlns:svg="http://www.w3.org/2000/svg" xmlns:rdf="http://www.w3.org/1999/02/22-rdf-syntax-ns#" xmlns:cc="http://creativecommons.org/ns#" xmlns:dc="http://purl.org/dc/elements/1.1/" xmlns:xlink="http://www.w3.org/1999/xlink" xml:space="preserve" version="1.1"
     width="1000px" height="1000px" viewBox="0 0 1000 1000">
  <title>Mars 2020</title>
  <metadata id="metadata0">
    <rdf:RDF>
      <cc:Work rdf:about="">
        <dc:format>image/svg+xml</dc:format>
        <dc:type rdf:resource="http://purl.org/dc/dcmitype/StillImage" />
        <dc:title>Mars 2020</dc:title>
      </cc:Work>
    </rdf:RDF>
  </metadata>
  <g id="g003" style="display:inline">
    <title>Logo</title>
    <path d="M 499.995266003962 0 C 223.842124195339 0 0 223.858976821853 0 500 C 0 776.141041246664 223.842124195339 1000 499.995266003962 1000
C 776.148389743898 1000 1000 776.141023178148 1000 500 C 1000 223.85894068482 776.148389743898 0 499.995266003962 0 z M 821.790272989679 729.590273992424
C 821.790272989679 753.595124268749 802.16181091177 773.223400506294 778.166205866963 773.223400506294 L 700.950181666197 773.223400506294
C 676.935631602888 773.223400506294 657.307165007806 753.595124268749 657.307165007806 729.590273992424 L 657.307165007806 657.054699433126
C 657.307165007806 633.059317059238 637.669230420646 613.402632597251 613.673616341496 613.402632597251 L 547.607557654834 613.402632597251
C 523.611943575683 613.402632597251 503.97402705721 613.535255505441 503.97402705721 613.705768091897
C 503.97402705721 613.847867936782 484.345578530816 613.980490844972 460.340496459587 613.980490844972 L 388.069469910253 613.980490844972
C 364.064387839023 613.980490844972 344.43593931263 633.608762565388 344.43593931263 657.613617358843 L 344.43593931263 733.692134312387
C 344.43593931263 757.696984588712 324.798022794156 777.325260826257 300.802408715005 777.325260826257 L 223.586379997067 777.325260826257
C 199.581297925838 777.325260826257 179.952849399444 757.696984588712 179.952849399444 733.692134312387 L 179.952849399444 656.486322639229
C 179.952849399444 632.49094478247 199.581297925838 612.843719188663 223.586379997067 612.843719188663 L 295.857406546402 612.843719188663
C 319.862488617632 612.843719188663 339.490937144025 593.215438433988 339.490937144025 569.220069611488 L 339.490937144025 493.132084755506
C 339.490937144025 469.127229962052 339.566717218036 449.498967275894 339.642497292047 449.498967275894
C 339.699341381899 449.498967275894 339.77512145591 429.861218618782 339.77512145591 405.865849796281 L 339.77512145591 328.660020054608
C 339.77512145591 304.664633163591 359.403569982303 285.026902574995 383.408652053533 285.026902574995 L 460.615212779391 285.026902574995
C 484.610826858541 285.026902574995 504.239275384935 304.664669300623 504.239275384935 328.660020054608 L 504.239275384935 405.306918319177
C 504.239275384935 429.302305210194 523.877209972096 448.930567896352 547.872805982559 448.930567896352 L 618.334434198216 448.930567896352
C 642.330048277366 448.930567896352 661.96796479584 468.568316553464 661.96796479584 492.563685375964 L 661.96796479584 565.108741389088
C 661.96796479584 589.113596182542 681.59643139092 608.760812742091 705.592027401383 608.760812742091 L 778.166178763932 608.760812742091
C 802.16181091177 608.760803707833 821.790272989679 628.389084462507 821.790272989679 652.393930221704 L 821.790272989679 729.590273992424 z M 666.287754250824 118.622265528842
C 675.789372157211 221.9359446531 683.51002280919 229.647081407049 786.834175201655 239.176994991842
C 683.510031843534 248.669036966883 675.742005093782 257.062224066657 666.287754250824 359.712788649966
C 656.880870471294 256.635915497742 649.065476658113 248.669036966883 545.731865307912 239.176994991842
C 649.065476658113 229.647045270017 656.776668352356 221.9359446531 666.287754250824 118.622265528842 Z" stroke="none" fill="#DC0021" fill-opacity="1" fill-rule="evenodd" />
  </g>
</svg>