<?xml version="1.0" encoding="utf-8"?>
<!-- Generator: Adobe Illustrator 20.1.0, SVG Export Plug-In . SVG Version: 6.00 Build 0)  -->
<svg version="1.1" id="Layer_1" xmlns="http://www.w3.org/2000/svg" xmlns:xlink="http://www.w3.org/1999/xlink" x="0px" y="0px"
	 viewBox="0 0 250 100" style="enable-background:new 0 0 250 100;" xml:space="preserve">
<style type="text/css">
	.st0{clip-path:url(#SVGID_2_);fill:#00AEEF;}
	.st1{fill:none;}
	.st2{fill:#242634;}
	.st3{fill:#6C749A;}
</style>
<g>
	<g>
		<g>
			<defs>
				<rect id="SVGID_1_" x="35.3" y="2.6" width="179.3" height="17.8"/>
			</defs>
			<clipPath id="SVGID_2_">
				<use xlink:href="#SVGID_1_"  style="overflow:visible;"/>
			</clipPath>
			<path class="st0" d="M35.3,20.4C86.7-2.5,159.1-4,214.7,20.5C159.8,10.9,87,8.2,35.3,20.4"/>
		</g>
	</g>
	<rect x="35.3" y="2.6" class="st1" width="179.3" height="17.8"/>
	<g>
		<g>
			<g>
				<rect x="45.3" y="42.9" class="st2" width="1.6" height="1.7"/>
				<rect x="46.7" y="45.3" class="st2" width="1.6" height="1.7"/>
				<path class="st2" d="M52.5,48.7H51c0,3.2,0.1,5,0.1,5.4c0,1-0.7,1.5-1.5,1.5c-0.8,0-1.4-0.2-1.9-0.6c-0.5-0.4-0.8-1-0.8-1.8
					c0-1.7,0-3,0-3.8h-1.5c0,2.7,0.1,4.3,0.1,4.8c0,1-0.6,1.5-1.5,1.5c-1.7,0-2.5-0.8-2.6-2.4v-3.8h-1.5c0,1,0,1.8,0,2.5v3.4h-3.2
					h-0.2h-5.9c-0.2-2.1-0.7-3.7-1.6-4.9c-0.8-1.1-1.8-1.6-2.9-1.6v1.4c0.7,0,1.4,0.5,2,1.4c0.7,1,1,2.3,1.1,3.7h-6l-0.5,1.4h13.7
					h0.2h4.7v-1c0.3,0.4,0.6,0.7,0.9,0.9c0.4,0.2,1,0.3,1.7,0.3c1.4,0,2.3-0.6,2.7-1.7c0.3,0.6,0.7,1.1,1.2,1.4
					c0.4,0.2,1,0.4,1.8,0.4c1.7,0,2.9-1.2,2.9-2.9C52.5,53.9,52.5,52.1,52.5,48.7z"/>
				<rect x="44" y="45.3" class="st2" width="1.6" height="1.7"/>
			</g>
			<path class="st2" d="M57.1,56.7h-1.5l-0.1-14.1H57L57.1,56.7z"/>
			<path class="st2" d="M63,54.6c0,1.9-0.5,3.4-1.6,4.7c-1,1.2-2.4,1.9-4.1,2.1c-0.2-0.3-0.4-0.7-0.6-1.4c1.4,0,2.5-0.5,3.4-1.5
				c0.9-1,1.4-2.2,1.4-3.7l0-6.1H63L63,54.6z"/>
		</g>
		<g>
			<rect x="74.2" y="47.1" class="st2" width="1.6" height="1.7"/>
			<rect x="86.8" y="58.2" class="st2" width="1.6" height="1.7"/>
			<path class="st2" d="M89.6,48.7h-1.5c0,3.3,0.1,5,0.1,5.1c0,1-0.6,1.5-1.5,1.5h-1.9h-0.5h-1.6c-0.4,0-0.8-0.2-1.2-0.6
				c-0.4-0.5-0.6-1.1-0.7-1.8l0-2h-1.5l0.1,4.5c0,1.3-0.4,2.4-1.3,3.3s-1.8,1.4-3,1.4s-2.2-0.5-3-1.4c-0.9-0.9-1.3-2-1.3-3.3
				c0-0.1,0-0.8,0-2.1c0-1.3,0-2.1,0-2.4h-1.5c0,0.3,0,1.1,0.1,2.4c0,1.2,0,1.9,0,2.1c0,1.7,0.6,3.2,1.7,4.4s2.5,1.8,4.1,1.8
				c1.6,0,2.9-0.6,4.1-1.8c1.1-1.2,1.7-2.6,1.7-4.3c0.5,0.9,1.2,1.3,2,1.3h1.5h0.5h1.9c1.9,0,2.9-1.1,2.9-2.8
				C89.7,53.8,89.7,52.1,89.6,48.7z"/>
		</g>
		<path class="st2" d="M143.4,49.8c-0.7-0.9-1.7-1.3-2.8-1.3c-2.3,0-3.6,1.6-3.6,4.1c0,1,0.3,1.9,0.9,2.7h-2.4h-0.7h-1.6
			c-0.2-2-0.6-3.5-1.5-4.7c-1-1.4-2.4-2.1-4.3-2.1c-1,0-2.2,0.3-3.6,0.9l0.6,1.3c1-0.6,2-0.9,3-0.9c1.1,0,2.1,0.5,2.8,1.4
			c0.9,1,1.3,2.4,1.3,4h-8.9h-0.4h-1.8c0-0.2,0-0.5,0-0.7c0-1.1-0.3-2-1-2.8c-0.7-0.9-1.6-1.3-2.8-1.3c-2.3,0-3.6,1.5-3.6,4.1
			c0,0.2,0,0.5,0,0.7h-2.3h-0.1h-5.8c-0.2-2.1-0.7-3.7-1.6-4.9c-0.8-1.1-1.8-1.6-2.9-1.6v1.4c0.7,0,1.4,0.5,2,1.4
			c0.7,1,1,2.3,1.1,3.7h-6l-0.5,1.4h13.6h0.1h2.7c0.7,1.3,1.8,2,3.3,2c1.6,0,2.6-0.6,3.2-2h2.1h0.5h12h0.7h5.3
			c2.3,0,3.6-1.5,3.6-4.1C144.3,51.5,144,50.6,143.4,49.8z M118.3,56.7c-0.4,0.5-0.9,0.7-1.5,0.7c-0.6,0-1.1-0.2-1.5-0.7
			c-0.5-0.5-0.7-1.2-0.7-2.1c0-0.9,0.2-1.7,0.6-2.2c0.4-0.5,0.9-0.7,1.5-0.7c0.6,0,1.1,0.2,1.5,0.7c0.5,0.6,0.7,1.3,0.7,2.2
			C118.9,55.5,118.7,56.2,118.3,56.7z M142.2,54.7c-0.4,0.5-0.9,0.7-1.5,0.7c-0.6,0-1.1-0.2-1.5-0.7c-0.5-0.5-0.7-1.2-0.7-2.1
			c0-0.9,0.2-1.7,0.6-2.1c0.4-0.5,0.9-0.7,1.5-0.7c0.6,0,1.1,0.2,1.5,0.7c0.5,0.6,0.7,1.3,0.7,2.1C142.8,53.5,142.6,54.2,142.2,54.7
			z"/>
		<g>
			<g>
				<rect x="153.4" y="45.3" class="st2" width="1.6" height="1.7"/>
				<path class="st2" d="M168.3,51.1c-1-1.6-2.6-2.4-4.7-2.4c-0.5,0-1,0-1.5,0.1l3.8-3.7l-1-1l-5.2,5.4c0,0-0.1,0-0.1,0l0.7,1.3
					c1-0.6,2-0.9,3-0.9c1.3,0,2.4,0.5,3.3,1.4c0.9,1,1.4,2.2,1.4,3.8h-9.1h-0.6h-1.6c-0.4,0-0.8-0.2-1.2-0.6c-0.4-0.4-0.6-1-0.7-1.6
					l0-4.3h-1.5l0,6.1c0,1.4-0.4,2.7-1.3,3.7c-0.9,1-2.1,1.5-3.5,1.5c0.3,0.6,0.5,1.1,0.6,1.4c1.6-0.1,2.9-0.7,3.9-1.8
					c1-1.1,1.6-2.5,1.7-4.2c0.5,0.9,1.2,1.4,2,1.4h1.4h0.5h10.7C169.6,54.3,169.2,52.5,168.3,51.1z"/>
			</g>
			<path class="st2" d="M226.2,49.8c-0.7-0.9-1.7-1.3-2.8-1.3c-2.3,0-3.6,1.6-3.6,4.1c0,1,0.3,1.9,0.9,2.7h-2.5h-0.6h-38.1h-0.3
				h-1.8c-0.4,0-0.8-0.2-1.2-0.6c-0.4-0.4-0.6-1-0.7-1.6l0-4.3H174l0,6.1c0,1.4-0.4,2.7-1.3,3.7c-0.9,1-2.1,1.5-3.5,1.5
				c0.3,0.6,0.5,1.1,0.6,1.4c1.6-0.1,2.9-0.7,3.9-1.8c1-1.1,1.6-2.5,1.7-4.2c0.5,0.9,1.2,1.4,2,1.4h1.7h0.2h38.1h0.6h5.5
				c2.3,0,3.6-1.5,3.6-4.1C227.2,51.5,226.9,50.5,226.2,49.8z M225.1,54.7c-0.4,0.5-0.9,0.7-1.4,0.7c-0.6,0-1.1-0.2-1.5-0.7
				c-0.5-0.5-0.7-1.2-0.7-2.1c0-0.9,0.2-1.7,0.6-2.1c0.4-0.5,0.9-0.7,1.4-0.7s1.1,0.2,1.5,0.7c0.5,0.6,0.7,1.3,0.7,2.1
				C225.7,53.5,225.5,54.2,225.1,54.7z"/>
		</g>
		<path class="st2" d="M29.9,77h-7.1l0.8-1.4h2c-0.5-0.6-0.7-1.3-0.7-2.1c0-0.9,0.3-1.6,0.8-2.2c0.6-0.6,1.3-0.9,2.1-0.9
			c0.8,0,1.5,0.3,2,1l-0.6,1c-0.4-0.5-0.9-0.7-1.4-0.7c-0.9,0-1.4,0.7-1.4,2c0,1.4,0.6,1.9,1.9,1.9h1.6L29.9,77L29.9,77z"/>
		<g>
			<rect x="119.2" y="65.6" class="st2" width="1.6" height="1.7"/>
			<rect x="133.8" y="64.1" class="st2" width="1.6" height="1.7"/>
			<path class="st2" d="M227.2,68.5c0-2.8,0-4.6,0-5.7h-1.5c0,1,0,2.9,0,5.6c0,2.4,0,4.2,0,5.6c0,1-0.6,1.5-1.5,1.5h-1h-0.5h-1.6
				c-0.4,0-0.8-0.2-1.2-0.6c-0.4-0.5-0.7-1-0.7-1.6c-0.1-4.1-0.1-7.7-0.1-10.6h-1.5c0.1,4.5,0.1,8.2,0.1,11.2c0,0.5-0.2,0.9-0.6,1.2
				c-0.4,0.2-0.7,0.3-1.1,0.3h-0.6H215h-74.9h-0.3h-2c-0.9,0-1.5,0-1.8-0.1c0.8-0.6,1.4-1.3,1.8-2.1c0.3-0.7,0.5-1.4,0.5-2.1
				c0-1.2-0.4-2.1-1.1-2.8c-0.7-0.6-1.6-1-2.6-1c-1,0-1.9,0.3-2.6,1c-0.7,0.7-1.1,1.6-1.1,2.8c0,0.7,0.2,1.4,0.5,2.1
				c0.4,0.9,1,1.6,1.8,2.1c-0.3,0.1-1,0.1-1.8,0.1h-2.1h-0.5h-3.4c-0.2-1.9-0.5-3.3-1-4.3c-0.8-1.4-2-2.1-3.7-2.3
				c-1-0.1-2,0.2-3.2,0.8c-1.3,0.7-2.4,1.8-3.1,3.2v-1.9H113v4.5h-3.7h0H36.9l0,0h-1.6c-0.7-0.1-1-0.6-1-1.4l-0.1-11.4h-1.5
				l0.1,11.5c0,0.8,0.3,1.5,0.7,1.9c0.4,0.4,1,0.6,1.6,0.6h1.8h0h72.4h0h19.5h0.5h2c1.1,0,2.2-0.2,3.3-0.7c1.1,0.5,2.2,0.7,3.3,0.7
				h2h0.3H215h0.5h1c1.2-0.1,2.3-0.7,2.7-1.8c0.1,0.3,0.3,0.6,0.6,1c0.5,0.6,1,0.8,1.7,0.8h1.5h0.5h1c1.9,0,3-1.1,3-2.8
				C227.3,72.7,227.2,70.9,227.2,68.5z M114.4,75.6v-0.2c1.6-3.5,3.7-5.2,6.3-5c1.3,0.1,2.3,1,2.8,2.7c0.2,0.7,0.3,1.6,0.4,2.5
				H114.4z M134.6,74.7c-0.3,0-0.7-0.3-1.3-1c-0.6-0.7-1-1.6-1-2.5c0-0.7,0.2-1.4,0.6-1.8c0.4-0.6,1-0.8,1.6-0.8s1.2,0.3,1.6,0.8
				c0.4,0.5,0.6,1.1,0.6,1.8c0,1-0.3,1.8-0.9,2.5C135.3,74.4,134.9,74.7,134.6,74.7z"/>
		</g>
		<g>
			<path class="st3" d="M25.7,95.8L25.7,95.8L23.8,93v4.2h-1v-5.9h1.1l1.8,2.8l1.8-2.8h1.1v5.9h-1V93L25.7,95.8z"/>
			<path class="st3" d="M33.8,97.4c-1.8,0-3.1-1.4-3.1-3s1.3-3,3.1-3c1.8,0,3.1,1.4,3.1,3C36.9,95.9,35.6,97.4,33.8,97.4z
				 M33.8,92.2c-1.2,0-2,0.9-2,2.1c0,1.1,0.8,2.1,2,2.1c1.2,0,2-0.9,2-2.1C35.8,93.2,34.9,92.2,33.8,92.2z"/>
			<path class="st3" d="M40.1,94.8v2.5h-1v-5.9h1v2.4h2.8v-2.4h1v5.8h-1v-2.5H40.1z"/>
			<path class="st3" d="M51.9,97.2h-1.1l-0.6-1.4h-2.8l-0.6,1.4h-1l2.6-5.9h1L51.9,97.2z M48.9,92.6l-1,2.3h2L48.9,92.6z"/>
			<path class="st3" d="M56.8,95.8L56.8,95.8L54.9,93v4.2h-1v-5.9H55l1.8,2.8l1.8-2.8h1.1v5.9h-1V93L56.8,95.8z"/>
			<path class="st3" d="M65,95.8L65,95.8L63.1,93v4.2h-1v-5.9h1.1l1.8,2.8l1.8-2.8h1.1v5.9h-1V93L65,95.8z"/>
			<path class="st3" d="M74.6,92.3h-3.3v1.5h2.9v0.9h-2.9v1.6h3.4v0.9h-4.4v-5.9h4.3V92.3z"/>
			<path class="st3" d="M79,97.2h-2.2v-5.9H79c1.8,0,3.1,1.3,3.1,2.9C82.2,95.9,80.9,97.2,79,97.2z M79,92.3h-1.2v4H79
				c1.2,0,2-0.8,2-2C81.1,93.1,80.3,92.3,79,92.3z"/>
			<path class="st3" d="M92.3,92.9c0,0.7-0.4,1.1-0.8,1.3c0.7,0.2,1.2,0.6,1.2,1.4c0,1-0.9,1.6-2.2,1.6h-2.7v-5.9h2.6
				C91.6,91.4,92.3,91.9,92.3,92.9z M91.3,93c0-0.5-0.4-0.8-1-0.8h-1.5v1.6h1.4C90.9,93.9,91.3,93.6,91.3,93z M91.6,95.5
				c0-0.5-0.4-0.8-1.2-0.8h-1.7v1.6h1.7C91.2,96.3,91.6,96,91.6,95.5z"/>
			<path class="st3" d="M95.8,91.4v5.9h-1v-5.9H95.8z"/>
			<path class="st3" d="M102.4,91.4h1v5.9h-0.9l-3.2-4.2v4.2h-1v-5.9h1l3.1,4.1V91.4z"/>
			<path class="st3" d="M113.1,97.2l-1.4-2.1h-1.3v2.1h-1v-5.9h2.6c1.4,0,2.2,0.7,2.2,1.9c0,1-0.6,1.6-1.4,1.8l1.6,2.2H113.1z
				 M111.9,92.3h-1.5v2h1.5c0.7,0,1.2-0.4,1.2-1C113.1,92.7,112.6,92.3,111.9,92.3z"/>
			<path class="st3" d="M121.9,97.2h-1.1l-0.6-1.4h-2.8l-0.6,1.4h-1l2.6-5.9h1L121.9,97.2z M118.9,92.6l-1,2.3h2L118.9,92.6z"/>
			<path class="st3" d="M126,93.8c1.2,0.3,1.9,0.7,1.9,1.7c0,1.1-0.9,1.8-2.1,1.8c-0.9,0-1.8-0.3-2.5-1l0.6-0.7
				c0.6,0.5,1.1,0.8,1.8,0.8c0.6,0,1-0.3,1-0.7s-0.2-0.6-1.3-0.9c-1.3-0.3-2-0.7-2-1.8c0-1,0.8-1.7,2-1.7c0.9,0,1.5,0.2,2.1,0.7
				l-0.6,0.8c-0.5-0.4-1-0.6-1.6-0.6c-0.6,0-1,0.3-1,0.7C124.6,93.4,124.9,93.6,126,93.8z"/>
			<path class="st3" d="M131.1,94.8v2.5h-1v-5.9h1v2.4h2.8v-2.4h1v5.8h-1v-2.5H131.1z"/>
			<path class="st3" d="M138.5,91.4v5.9h-1v-5.9H138.5z"/>
			<path class="st3" d="M143.1,97.2h-2.2v-5.9h2.2c1.8,0,3.1,1.3,3.1,2.9C146.3,95.9,145,97.2,143.1,97.2z M143.1,92.3H142v4h1.2
				c1.2,0,2-0.8,2-2S144.3,92.3,143.1,92.3z"/>
			<path class="st3" d="M154.1,93.8c1.2,0.3,1.9,0.7,1.9,1.7c0,1.1-0.9,1.8-2.1,1.8c-0.9,0-1.8-0.3-2.5-1l0.6-0.7
				c0.6,0.5,1.1,0.8,1.8,0.8c0.6,0,1-0.3,1-0.7s-0.2-0.6-1.3-0.9c-1.3-0.3-2-0.7-2-1.8c0-1,0.8-1.7,2-1.7c0.9,0,1.5,0.2,2.1,0.7
				l-0.6,0.8c-0.5-0.4-1-0.6-1.6-0.6c-0.6,0-1,0.3-1,0.7C152.7,93.4,153,93.6,154.1,93.8z"/>
			<path class="st3" d="M160.3,95.4h-1.2v1.9h-1v-5.9h2.3c1.4,0,2.2,0.8,2.2,2C162.7,94.7,161.6,95.4,160.3,95.4z M160.4,92.3h-1.2
				v2.1h1.2c0.8,0,1.3-0.4,1.3-1C161.6,92.7,161.1,92.3,160.4,92.3z"/>
			<path class="st3" d="M169.7,97.2h-1.1l-0.6-1.4h-2.8l-0.6,1.4h-1l2.6-5.9h1L169.7,97.2z M166.6,92.6l-1,2.3h2L166.6,92.6z"/>
			<path class="st3" d="M174,97.4c-1.7,0-3-1.3-3-3c0-1.7,1.3-3,3-3c1.1,0,1.8,0.4,2.3,0.9l-0.7,0.8c-0.5-0.4-1-0.7-1.7-0.7
				c-1.1,0-1.9,0.9-1.9,2.1c0,1.2,0.8,2.1,1.9,2.1c0.7,0,1.2-0.3,1.7-0.8l0.7,0.7C175.8,96.9,175.1,97.4,174,97.4z"/>
			<path class="st3" d="M182.7,92.3h-3.3v1.5h2.9v0.9h-2.9v1.6h3.4v0.9h-4.4v-5.9h4.4L182.7,92.3L182.7,92.3z"/>
			<path class="st3" d="M191.1,97.4c-1.7,0-3-1.3-3-3c0-1.7,1.3-3,3-3c1.1,0,1.8,0.4,2.3,0.9l-0.7,0.8c-0.5-0.4-1-0.7-1.7-0.7
				c-1.1,0-1.9,0.9-1.9,2.1c0,1.2,0.8,2.1,1.9,2.1c0.7,0,1.2-0.3,1.7-0.8l0.7,0.7C192.9,96.9,192.2,97.4,191.1,97.4z"/>
			<path class="st3" d="M199.8,92.3h-3.3v1.5h2.9v0.9h-2.9v1.6h3.4v0.9h-4.4v-5.9h4.4L199.8,92.3L199.8,92.3z"/>
			<path class="st3" d="M206.1,91.4h1v5.9h-0.9l-3.2-4.2v4.2h-1v-5.9h1l3.1,4.1L206.1,91.4L206.1,91.4z"/>
			<path class="st3" d="M212.1,97.2h-1v-4.9h-1.9v-1h4.8v1H212L212.1,97.2L212.1,97.2z"/>
			<path class="st3" d="M219.7,97.2l-1.4-2.1H217v2.1h-1v-5.9h2.6c1.4,0,2.2,0.7,2.2,1.9c0,1-0.6,1.6-1.4,1.8l1.6,2.2H219.7z
				 M218.5,92.3H217v2h1.5c0.7,0,1.2-0.4,1.2-1C219.7,92.7,219.2,92.3,218.5,92.3z"/>
			<path class="st3" d="M227.3,92.3H224v1.5h2.9v0.9H224v1.6h3.4v0.9H223v-5.9h4.4L227.3,92.3L227.3,92.3z"/>
		</g>
	</g>
</g>
</svg>
