<svg xmlns="http://www.w3.org/2000/svg" viewBox="0 0 539.631 341.167">
  <defs>
    <style>
      .a, .c {
        fill: #6d6e71;
      }

      .a, .b {
        fill-rule: evenodd;
      }

      .b {
        fill: #ed1941;
      }
    </style>
  </defs>
  <title>RKM</title>
  <g>
    <g>
      <path class="a" d="M268.747,51.644l1.461-.405c-72.73,22.571-130.274,61.239-131.458,89.639-1.267,30.4,62.516,37.529,142.427,15.936s145.738-63.76,147-94.157c.654-15.75-16.178-25.248-43.653-27.748,33.584,1.5,54.622,11.289,54.622,28.764,0,33.308-76.305,81.935-170.4,108.609s-170.4,21.272-170.4-12.035,76.305-81.936,170.4-108.6"/>
      <polygon class="b" points="135.316 226.773 371.538 0 350.126 178.267 311.068 133.544 135.316 226.773"/>
    </g>
    <g>
      <path class="c" d="M30.1,339.811l-12.769-18.94H10.824v18.94H0V282.989H20.291c14.8,0,21.647,7.947,21.647,18.941,0,7.947-4.645,15.558-13.016,18.1l14.372,19.784ZM10.824,310.047H21.646c5.249,0,9.469-3.385,9.469-8.117,0-5.329-4.22-8.116-9.469-8.116H10.824Z"/>
      <path class="c" d="M110.534,311.4a29.765,29.765,0,1,1-29.77-29.757A29.815,29.815,0,0,1,110.534,311.4Zm-10.823,0a18.941,18.941,0,1,0-18.947,18.949A18.909,18.909,0,0,0,99.711,311.4Z"/>
      <path class="c" d="M164.464,322.9c0,10.144-7.776,18.268-22.826,18.268-14.55,0-22.154-8.459-23.168-9.474l5.411-9.473a25.045,25.045,0,0,0,17.922,8.126c7.529,0,11.837-2.8,11.837-6.768s-4.056-6-11.495-7.1c-16.154-2.452-21.648-8.455-21.648-17.079,0-9.473,7.693-17.755,21.813-17.755a30.456,30.456,0,0,1,19.454,6.932l-4.57,9.3a23.844,23.844,0,0,0-15.049-5.411c-5.754,0-10.824,1.6-10.824,6.17,0,3.884,3.3,5.323,11.5,6.678C155.25,307.342,164.464,310.726,164.464,322.9Z"/>
      <path class="c" d="M217.243,324.509l4.144,9.808a28.588,28.588,0,0,1-18.434,6.85c-16.654,0-30.271-13.363-30.271-29.77S186.3,281.64,202.953,281.64c6.343,0,13.611,2.364,18.434,6.761l-4.144,9.809a20.134,20.134,0,0,0-14.119-5.746c-10.823,0-19.619,8.452-19.619,18.933s8.8,18.949,19.619,18.949A19.59,19.59,0,0,0,217.243,324.509Z"/>
      <path class="c" d="M287.961,311.4A29.762,29.762,0,1,1,258.2,281.64,29.81,29.81,0,0,1,287.961,311.4Zm-10.824,0A18.938,18.938,0,1,0,258.2,330.346,18.9,18.9,0,0,0,277.137,311.4Z"/>
      <path class="c" d="M341.9,322.9c0,10.144-7.78,18.268-22.831,18.268-14.543,0-22.153-8.459-23.167-9.474l5.41-9.473a25.06,25.06,0,0,0,17.929,8.126c7.522,0,11.837-2.8,11.837-6.768s-4.057-6-11.5-7.1c-16.147-2.452-21.647-8.455-21.647-17.079,0-9.473,7.7-17.755,21.817-17.755a30.451,30.451,0,0,1,19.448,6.932l-4.569,9.3a23.827,23.827,0,0,0-15.049-5.411c-5.749,0-10.824,1.6-10.824,6.17,0,3.884,3.3,5.323,11.5,6.678C332.687,307.342,341.9,310.726,341.9,322.9Z"/>
      <path class="c" d="M417.974,339.811h-11.5l-4.735-37.2-14.879,37.2h-5.411l-14.885-37.2-4.735,37.2h-11.5l8.117-56.822h10.826l14.877,36.532,14.886-36.532h10.824Z"/>
      <path class="c" d="M485.7,311.4a29.765,29.765,0,1,1-29.765-29.757A29.81,29.81,0,0,1,485.7,311.4Zm-10.824,0a18.942,18.942,0,1,0-18.941,18.949A18.9,18.9,0,0,0,474.873,311.4Z"/>
      <path class="c" d="M539.631,322.9c0,10.144-7.78,18.268-22.832,18.268-14.544,0-22.153-8.459-23.166-9.474l5.412-9.473a25.05,25.05,0,0,0,17.925,8.126c7.522,0,11.837-2.8,11.837-6.768s-4.061-6-11.5-7.1c-16.149-2.452-21.648-8.455-21.648-17.079,0-9.473,7.7-17.755,21.819-17.755a30.448,30.448,0,0,1,19.446,6.932l-4.569,9.3a23.826,23.826,0,0,0-15.048-5.411c-5.749,0-10.825,1.6-10.825,6.17,0,3.884,3.3,5.323,11.5,6.678C530.417,307.342,539.631,310.726,539.631,322.9Z"/>
    </g>
  </g>
</svg>
