<svg id="ee8Ci5nHtOF1" xmlns="http://www.w3.org/2000/svg" xmlns:xlink="http://www.w3.org/1999/xlink" viewBox="0 0 877 877" shape-rendering="geometricPrecision" text-rendering="geometricPrecision">
<style><![CDATA[
#ee8Ci5nHtOF2_tr {animation: ee8Ci5nHtOF2_tr__tr 3000ms linear infinite normal forwards}@keyframes ee8Ci5nHtOF2_tr__tr { 0% {transform: translate(438.5px,438.494629px) rotate(448.111422deg)} 100% {transform: translate(438.5px,438.494629px) rotate(176.237492deg)}} #ee8Ci5nHtOF4_tr {animation: ee8Ci5nHtOF4_tr__tr 3000ms linear infinite normal forwards}@keyframes ee8Ci5nHtOF4_tr__tr { 0% {transform: translate(438.505302px,438.499943px) rotate(448.111422deg)} 100% {transform: translate(438.505302px,438.499943px) rotate(176.237492deg)}} #ee8Ci5nHtOF6_tr {animation: ee8Ci5nHtOF6_tr__tr 3000ms linear infinite normal forwards}@keyframes ee8Ci5nHtOF6_tr__tr { 0% {transform: translate(438.499969px,438.510521px) rotate(448.111422deg)} 33.333333% {transform: translate(438.499969px,438.510521px) rotate(358.111422deg)} 56.666667% {transform: translate(438.499969px,438.510521px) rotate(299.611422deg)} 76.666667% {transform: translate(438.499969px,438.510521px) rotate(270.572806deg)} 100% {transform: translate(438.499969px,438.510521px) rotate(176.237492deg)}} #ee8Ci5nHtOF9_tr {animation: ee8Ci5nHtOF9_tr__tr 3000ms linear infinite normal forwards}@keyframes ee8Ci5nHtOF9_tr__tr { 0% {transform: translate(438.499985px,438.499985px) rotate(180deg)} 33.333333% {transform: translate(438.499985px,438.499985px) rotate(270deg)} 56.666667% {transform: translate(438.499985px,438.499985px) rotate(360deg)} 76.666667% {transform: translate(438.499985px,438.499985px) rotate(450deg)} 100% {transform: translate(438.499985px,438.499985px) rotate(540deg)}}
]]></style>
<defs><radialGradient id="ee8Ci5nHtOF2-fill" cx="0" cy="0" r="0.5" spreadMethod="repeat" gradientUnits="objectBoundingBox" gradientTransform="translate(0.5 0.5)"><stop id="ee8Ci5nHtOF2-fill-0" offset="0%" stop-color="#fff9c7"/><stop id="ee8Ci5nHtOF2-fill-1" offset="100%" stop-color="#000638"/></radialGradient><filter id="ee8Ci5nHtOF4-filter" x="-150%" width="400%" y="-150%" height="400%"><feGaussianBlur id="ee8Ci5nHtOF4-filter-drop-shadow-0-blur" in="SourceAlpha" stdDeviation="0,0"/><feOffset id="ee8Ci5nHtOF4-filter-drop-shadow-0-offset" dx="0" dy="0" result="tmp"/><feFlood id="ee8Ci5nHtOF4-filter-drop-shadow-0-flood" flood-color="#fff"/><feComposite id="ee8Ci5nHtOF4-filter-drop-shadow-0-composite" operator="in" in2="tmp"/><feMerge id="ee8Ci5nHtOF4-filter-drop-shadow-0-merge" result="result"><feMergeNode id="ee8Ci5nHtOF4-filter-drop-shadow-0-merge-node-1"/><feMergeNode id="ee8Ci5nHtOF4-filter-drop-shadow-0-merge-node-2" in="SourceGraphic"/></feMerge></filter><radialGradient id="ee8Ci5nHtOF4-fill" cx="0" cy="0" r="0.5" spreadMethod="pad" gradientUnits="objectBoundingBox" gradientTransform="translate(0.5 0.5)"><stop id="ee8Ci5nHtOF4-fill-0" offset="0%" stop-color="#ba0a0a"/><stop id="ee8Ci5nHtOF4-fill-1" offset="69%" stop-color="#d8511b"/><stop id="ee8Ci5nHtOF4-fill-2" offset="100%" stop-color="#fff"/></radialGradient><filter id="ee8Ci5nHtOF5-filter" x="-150%" width="400%" y="-150%" height="400%"><feGaussianBlur id="ee8Ci5nHtOF5-filter-inner-shadow-0-blur" in="SourceAlpha" stdDeviation="2,2"/><feOffset id="ee8Ci5nHtOF5-filter-inner-shadow-0-offset" dx="0" dy="0" result="tmp"/><feComposite id="ee8Ci5nHtOF5-filter-inner-shadow-0-composite" operator="arithmetic" k2="-1" k3="1" in2="SourceGraphic"/><feColorMatrix id="ee8Ci5nHtOF5-filter-inner-shadow-0-color-matrix" type="matrix" values="0 0 0 0 1 0 0 0 0 0.596078 0 0 0 0 0.27451 0 0 0 0.8 0"/><feMerge id="ee8Ci5nHtOF5-filter-inner-shadow-0-merge" result="result"><feMergeNode id="ee8Ci5nHtOF5-filter-inner-shadow-0-merge-node-1" in="SourceGraphic"/><feMergeNode id="ee8Ci5nHtOF5-filter-inner-shadow-0-merge-node-2"/></feMerge></filter><radialGradient id="ee8Ci5nHtOF6-fill" cx="0" cy="0" r="0.5" spreadMethod="repeat" gradientUnits="objectBoundingBox" gradientTransform="translate(0.5 0.5)"><stop id="ee8Ci5nHtOF6-fill-0" offset="20%" stop-color="#a4e3fe"/><stop id="ee8Ci5nHtOF6-fill-1" offset="100%" stop-color="#d14d16"/></radialGradient><linearGradient id="ee8Ci5nHtOF9-stroke" x1="438.5" y1="224.9" x2="450" y2="652" spreadMethod="pad" gradientUnits="userSpaceOnUse" gradientTransform="translate(0 0)"><stop id="ee8Ci5nHtOF9-stroke-0" offset="0%" stop-color="#fff"/><stop id="ee8Ci5nHtOF9-stroke-1" offset="100%" stop-color="rgba(235,75,5,0.2)"/></linearGradient></defs><g id="ee8Ci5nHtOF2_tr" transform="translate(438.5,438.494629) rotate(448.111422)"><path d="M790.758,341.515c31.228,30.601,59.866,63.737,85.622,99.068-12.88-94.358-63.728-183.237-148.142-241.806-10.676-7.397-21.746-14.206-33.162-20.399c42.347,10.883,83.717,25.262,123.685,42.987C760.427,146.082,671.954,94.5399,569.565,86.0279c-12.943-1.069-25.935-1.4326-38.918-1.0894c42.112-11.7444,85.125-19.9783,128.598-24.6174-88.163-36.0343-190.553-36.4294-283.479,7.3906-11.744,5.5421-23.174,11.7244-34.24,18.5191c30.601-31.2273,63.737-59.8657,99.067-85.621547C346.225,13.4893,257.357,64.3368,198.787,148.752c-7.396,10.675-14.205,21.745-20.398,33.161c10.883-42.346,25.261-83.7167,42.987-123.6851C146.092,116.562,94.5506,205.035,86.0386,307.424c-1.0689,12.944-1.4326,25.935-1.0893,38.918-11.7444-42.112-19.9784-85.125-24.6174-128.598-36.0343,88.164-36.4295,190.553,7.3905,283.48c5.5443,11.745,11.7266,23.179,18.5192,34.25-31.2273-30.601-59.8658-63.737-85.621605-99.067C13.5001,530.764,64.3476,619.643,148.762,678.213c10.676,7.396,21.746,14.205,33.162,20.398-42.347-10.883-83.717-25.261-123.6854-42.987C116.573,730.908,205.046,782.449,307.435,790.961c13.094,1.09,26.081,1.421,38.918,1.09-42.116,11.745-85.133,19.979-128.609,24.617c88.164,36.034,190.553,36.43,283.48-7.39c11.743-5.543,23.174-11.725,34.24-18.52-30.602,31.228-63.738,59.866-99.068,85.622c94.369-12.88,183.237-63.728,241.806-148.142c7.396-10.676,14.206-21.746,20.399-33.162-10.884,42.347-25.262,83.717-42.987,123.685c75.283-58.334,126.825-146.807,135.337-249.196c1.089-13.094,1.42-26.081,1.089-38.918c11.744,42.112,19.978,85.125,24.617,128.598c36.035-88.164,36.43-190.553-7.39-283.479-5.534-11.749-11.713-23.184-18.509-34.251Z" transform="translate(-438.5,-438.494629)" fill="url(#ee8Ci5nHtOF2-fill)"/></g><g><g id="ee8Ci5nHtOF4_tr" transform="translate(438.505302,438.499943) rotate(448.111422)"><path d="M747.804,353.348c27.419,26.87,52.564,55.965,75.176,86.989-11.31-82.856-55.952-160.884-130.082-212.319-9.372-6.494-19.091-12.473-29.114-17.91c37.178,9.56,73.501,22.184,108.594,37.743-51.221-66.098-128.907-111.36-218.812-118.836-11.362-.943-22.768-1.26-34.165-.951c36.979-10.309,74.748-17.539,112.92-21.616-77.409-31.6341-167.313-31.9866-248.908,6.493-10.435,4.924-20.453,10.371-30.065,16.255c26.87-27.419,55.966-52.5637,86.989-75.1761C357.482,65.33,279.443,109.972,228.019,184.102c-6.495,9.372-12.474,19.091-17.911,29.114c9.56-37.178,22.185-73.501,37.743-108.594-66.098,51.221-111.36,128.907-118.836,218.812-.943,11.362-1.26,22.768-.951,34.165-10.309-36.979-17.539-74.748-21.616-112.92-31.6341,77.409-31.9865,167.313,6.494,248.908c4.923,10.435,10.37,20.453,16.265,30.065-27.419-26.87-52.564-55.966-75.1764-86.989C65.3408,519.518,109.983,597.557,184.113,648.981c9.372,6.495,19.091,12.474,29.114,17.911-37.179-9.56-73.501-22.185-108.595-37.743c51.222,66.098,128.908,111.36,218.812,118.836c11.503.961,22.898,1.25,34.176.95-36.977,10.315-74.747,17.545-112.919,21.617c77.408,31.634,167.313,31.986,248.908-6.494c10.308-4.87,20.344-10.296,30.064-16.255-26.869,27.42-55.965,52.565-86.989,75.177c82.856-11.31,160.895-55.953,212.319-130.082c6.495-9.372,12.474-19.091,17.91-29.114-9.56,37.178-22.184,73.501-37.743,108.594c66.099-51.221,111.36-128.908,118.836-218.812.962-11.502,1.25-22.898.951-34.176c10.309,36.979,17.539,74.748,21.616,112.92c31.634-77.409,31.987-167.313-6.493-248.908-4.88-10.304-10.313-20.337-16.276-30.054Z" transform="translate(-438.505302,-438.499943)" filter="url(#ee8Ci5nHtOF4-filter)" fill="url(#ee8Ci5nHtOF4-fill)" stroke-linecap="round"/></g></g><g filter="url(#ee8Ci5nHtOF5-filter)"><g id="ee8Ci5nHtOF6_tr" transform="translate(438.499969,438.510521) rotate(448.111422)"><path d="M705.596,364.968c23.68,23.198,45.392,48.321,64.913,75.113-9.761-71.546-48.316-138.937-112.332-183.344-8.092-5.61-16.484-10.773-25.141-15.465c32.109,8.252,63.477,19.154,93.781,32.596-44.226-57.085-111.317-96.163-188.95-102.614-9.814-.81-19.665-1.084-29.509-.822c31.931-8.906,64.546-15.15,97.508-18.669-66.846-27.319-144.479-27.618-214.945,5.607-8.906,4.202-17.573,8.891-25.963,14.045c23.197-23.68,48.321-45.392,75.112-64.914-71.545,9.762-138.936,48.317-183.344,112.333-5.61,8.091-10.772,16.484-15.464,25.14c8.251-32.108,19.154-63.476,32.595-93.781-57.084,44.226-96.163,111.318-102.613,188.951-.823,9.932-1.079,19.779-.823,29.509-8.906-31.931-15.15-64.546-18.668-97.509-27.32,66.847-27.619,144.479,5.607,214.946c4.201,8.905,8.89,17.573,14.044,25.963-23.68-23.197-45.392-48.321-64.913-75.112c9.761,71.545,48.316,138.936,112.332,183.343c8.093,5.608,16.486,10.771,25.141,15.465-32.109-8.252-63.477-19.154-93.781-32.595c44.226,57.084,111.317,96.162,188.95,102.613c9.933.822,19.769,1.079,29.509.822-31.931,8.906-64.546,15.151-97.508,18.669c66.846,27.319,144.479,27.618,214.945-5.607c8.906-4.202,17.573-8.89,25.963-14.044-23.197,23.679-48.321,45.392-75.112,64.913c71.545-9.762,138.936-48.317,183.344-112.332c5.61-8.092,10.772-16.485,15.464-25.141-8.251,32.108-19.154,63.476-32.595,93.781c57.084-44.226,96.163-111.318,102.613-188.951.823-9.932,1.079-19.768.823-29.509c8.906,31.932,15.15,64.546,18.668,97.509c27.32-66.846,27.619-144.479-5.607-214.946-4.201-8.905-8.89-17.573-14.044-25.963Z" transform="translate(-438.499969,-438.510521)" fill="url(#ee8Ci5nHtOF6-fill)" fill-opacity="0.81"/></g></g><g><path d="M438.5,652.1c117.968,0,213.6-95.632,213.6-213.6s-95.632-213.6-213.6-213.6-213.6,95.632-213.6,213.6s95.632,213.6,213.6,213.6Z"/><g id="ee8Ci5nHtOF9_tr" transform="translate(438.499985,438.499985) rotate(180)"><path d="M438.5,660.6c122.663,0,222.1-99.438,222.1-222.1c0-122.663-99.437-222.1-222.1-222.1-122.662,0-222.1,99.437-222.1,222.1c0,122.662,99.438,222.1,222.1,222.1Z" transform="translate(-438.499985,-438.499985)" fill="none" stroke="url(#ee8Ci5nHtOF9-stroke)" stroke-width="17"/></g></g></svg>
